<svg width="20" height="20" viewBox="0 0 20 20" fill="none" xmlns="http://www.w3.org/2000/svg">
<path d="M9.184 0.203125C9.70136 -0.0664062 10.2986 -0.0664062 10.8159 0.203125L18.4062 4.14844C18.7014 4.30078 18.8889 4.63281 18.8889 5C18.8889 5.36719 18.7014 5.69922 18.4062 5.85156L10.8159 9.79688C10.2986 10.0664 9.70136 10.0664 9.184 9.79688L1.59372 5.85156C1.29858 5.69531 1.11108 5.36328 1.11108 5C1.11108 4.63672 1.29858 4.30078 1.59372 4.14844L9.184 0.203125ZM16.559 8.1875L18.4062 9.14844C18.7014 9.30078 18.8889 9.63281 18.8889 10C18.8889 10.3672 18.7014 10.6992 18.4062 10.8516L10.8159 14.7969C10.2986 15.0664 9.70136 15.0664 9.184 14.7969L1.59372 10.8516C1.29858 10.6953 1.11108 10.3633 1.11108 10C1.11108 9.63672 1.29858 9.30078 1.59372 9.14844L3.44095 8.1875L8.71872 10.9297C9.53122 11.3516 10.4687 11.3516 11.2812 10.9297L16.559 8.1875ZM11.2812 15.9297L16.559 13.1875L18.4062 14.1484C18.7014 14.3008 18.8889 14.6328 18.8889 15C18.8889 15.3672 18.7014 15.6992 18.4062 15.8516L10.8159 19.7969C10.2986 20.0664 9.70136 20.0664 9.184 19.7969L1.59372 15.8516C1.29858 15.6953 1.11108 15.3633 1.11108 15C1.11108 14.6367 1.29858 14.3008 1.59372 14.1484L3.44095 13.1875L8.71872 15.9297C9.53122 16.3516 10.4687 16.3516 11.2812 15.9297Z" fill="#FFF8F0"/>
</svg>
