<svg width="23" height="20" viewBox="0 0 23 20" fill="none" xmlns="http://www.w3.org/2000/svg">
<g clip-path="url(#clip0_74_1784)">
<path d="M12.5753 0.703125C12.365 0.273438 11.9206 0 11.4325 0C10.9444 0 10.5039 0.273438 10.2896 0.703125L7.73803 5.87109L2.03961 6.69922C1.56342 6.76953 1.1666 7.09766 1.01977 7.54688C0.872946 7.99609 0.991994 8.49219 1.33326 8.82422L5.46818 12.8516L4.49199 18.543C4.41263 19.0117 4.61104 19.4883 5.0039 19.7656C5.39676 20.043 5.9166 20.0781 6.34517 19.8555L11.4364 17.1797L16.5277 19.8555C16.9563 20.0781 17.4761 20.0469 17.869 19.7656C18.2618 19.4844 18.4602 19.0117 18.3809 18.543L17.4007 12.8516L21.5356 8.82422C21.8769 8.49219 21.9999 7.99609 21.8491 7.54688C21.6983 7.09766 21.3055 6.76953 20.8293 6.69922L15.1269 5.87109L12.5753 0.703125Z" fill="url(#paint0_linear_74_1784)"/>
</g>
<defs>
<linearGradient id="paint0_linear_74_1784" x1="11.4353" y1="0" x2="11.4353" y2="20.0022" gradientUnits="userSpaceOnUse">
<stop stop-color="#FFC33F"/>
<stop offset="1" stop-color="#926B15"/>
</linearGradient>
<clipPath id="clip0_74_1784">
<rect width="22.8571" height="20" fill="white"/>
</clipPath>
</defs>
</svg>
