<svg width="33" height="43" viewBox="0 0 33 43" fill="none" xmlns="http://www.w3.org/2000/svg">
<path d="M26.7053 22.8312C26.6996 24.8003 26.7053 26.7709 26.7053 28.74C26.7053 30.7607 26.7053 32.7798 26.7053 34.8005C26.713 35.1644 26.5974 35.5196 26.3784 35.8049C26.2723 35.9633 26.1291 36.0915 25.9622 36.1777C25.7954 36.264 25.6101 36.3054 25.4236 36.2983C25.2356 36.3052 25.0477 36.2839 24.8656 36.235C24.6902 36.182 24.5308 36.0837 24.4024 35.9495C24.274 35.8152 24.181 35.6494 24.132 35.4677C24.0721 35.2099 24.0307 34.9463 23.9893 34.6841C23.9911 34.6121 23.9978 34.5402 24.0093 34.4691C24.005 31.1495 23.9998 27.8303 23.9936 24.5117C23.9936 24.0301 23.9979 23.5485 24.0064 23.0669C24.0121 22.787 24.025 22.5072 24.0435 22.2274C24.0787 21.9517 24.2048 21.6969 24.4007 21.5059C24.5966 21.3149 24.8502 21.1994 25.1189 21.1788C25.3492 21.1653 25.5801 21.1842 25.8054 21.2347C25.9975 21.2992 26.1705 21.4133 26.3079 21.5661C26.4453 21.719 26.5425 21.9055 26.5904 22.1081C26.6683 22.3411 26.7074 22.5861 26.706 22.8327L26.7053 22.8312ZM32.0459 28.7665C32.0459 26.871 32.0459 24.9756 32.0459 23.0801C32.0499 22.8341 32.0375 22.588 32.0088 22.3437C31.9709 22.039 31.8423 21.7539 31.6406 21.5278C31.5036 21.3875 31.3379 21.2806 31.1556 21.2151C30.9733 21.1496 30.7791 21.1271 30.5873 21.1493C30.2851 21.1594 29.9966 21.2816 29.7746 21.4934C29.5525 21.7052 29.4119 21.9924 29.3784 22.3025C29.3464 22.503 29.3373 22.7066 29.3513 22.9093V34.5567C29.3329 34.9034 29.396 35.2496 29.5354 35.5656C29.6312 35.7981 29.7942 35.9944 30.0021 36.1278C30.21 36.2611 30.4528 36.3251 30.6972 36.3108C31.0288 36.3164 31.3499 36.191 31.5949 35.9603C31.7337 35.8397 31.8449 35.6888 31.9203 35.5185C32.0195 35.2162 32.0635 34.8976 32.0502 34.5788C32.0445 32.6421 32.0502 30.7054 32.0502 28.7687L32.0459 28.7665ZM22.099 34.7313C22.1278 34.9035 22.1195 35.0802 22.0746 35.2487C22.0297 35.4172 21.9493 35.5735 21.8392 35.7062C21.6384 35.9884 21.3505 36.1915 21.0228 36.2821C20.7685 36.3661 20.4943 36.3611 20.243 36.2679C19.9916 36.1747 19.7771 35.9985 19.6327 35.7666C19.3908 35.3719 19.1935 34.9499 19.0447 34.5089L19.019 34.4279C19.0156 34.4251 19.0127 34.4215 19.0108 34.4174C19.0088 34.4133 19.0077 34.4089 19.0076 34.4043C18.8706 34.0494 18.7307 33.6959 18.5951 33.341C18.5309 33.1716 18.4738 33.0008 18.411 32.8314C18.3297 32.6105 18.2683 32.5722 18.0457 32.5795C17.8887 32.584 17.7317 32.5854 17.5747 32.5854C17.3877 32.5854 17.2022 32.581 17.0152 32.5795C16.8069 32.5795 16.5985 32.5795 16.3887 32.5795C16.1789 32.5795 15.9719 32.5795 15.7621 32.5795C15.7179 32.5795 15.6736 32.5795 15.6294 32.5795C15.5852 32.5795 15.5395 32.5795 15.4952 32.5795L15.1227 32.5692L14.1023 32.5737C13.9895 32.5737 13.8754 32.5737 13.7626 32.5737C13.4486 32.5737 13.1332 32.5737 12.8192 32.5737C12.6265 32.5737 12.5752 32.6237 12.5138 32.8078C12.3654 33.2497 12.2098 33.6959 12.0557 34.1377C12.0496 34.1545 12.0414 34.1703 12.0314 34.1849C12.0214 34.1996 12.0114 34.2143 12.0014 34.2305C11.9529 34.3498 11.9072 34.4706 11.8587 34.5914C11.716 34.9537 11.5818 35.316 11.4163 35.665C11.3245 35.8615 11.1796 36.0264 10.999 36.1398C10.8185 36.2533 10.61 36.3103 10.3987 36.3042C10.1267 36.3201 9.85611 36.2534 9.62047 36.1123C9.38482 35.9712 9.19441 35.7619 9.07279 35.5104C8.94463 35.2591 8.90095 34.9711 8.94862 34.6915C9.03873 34.202 9.19034 33.7267 9.39962 33.2776C9.61798 32.6885 9.83492 32.092 10.059 31.5029C10.2888 30.8976 10.53 30.2967 10.7612 29.6929C10.9924 29.0891 11.2165 28.4808 11.4477 27.877C11.5833 27.5235 11.7274 27.173 11.8673 26.8195C11.8801 26.7827 11.8915 26.7459 11.9044 26.709L11.9115 26.7002L11.9244 26.6825C11.9329 26.6634 11.9415 26.6457 11.9486 26.6266C11.9857 26.5264 12.02 26.4248 12.0585 26.3246L12.0928 26.1847C12.0985 26.1759 12.1056 26.1685 12.1113 26.1597C12.2598 25.7724 12.4077 25.385 12.5552 24.9977C12.7093 24.5941 12.8578 24.1876 13.019 23.7856C13.2122 23.1989 13.4545 22.6307 13.7433 22.0875C13.7619 22.0636 13.7825 22.0414 13.8047 22.0212C13.9146 21.8989 14.0188 21.7679 14.1287 21.653C14.1656 21.6129 14.2047 21.5751 14.2457 21.5396C14.6083 21.2497 15.0632 21.111 15.5202 21.1508C15.5688 21.1553 15.6167 21.1657 15.6629 21.1817C16.0093 21.1651 16.3503 21.2745 16.6263 21.491C16.9049 21.6847 17.1301 21.9496 17.28 22.2598C17.2925 22.2888 17.3025 22.3188 17.3099 22.3496C17.4527 22.6545 17.6097 22.9535 17.7381 23.2657C17.9522 23.7885 18.1449 24.3217 18.3504 24.8489C18.6059 25.5028 18.8642 26.1538 19.1182 26.8077C19.1322 26.8664 19.1375 26.927 19.1339 26.9874C19.2096 27.1166 19.2787 27.2499 19.3409 27.3865C19.5863 27.9963 19.8233 28.6089 20.063 29.2216C20.3314 29.905 20.5968 30.5883 20.8651 31.2702C21.1334 31.9521 21.4089 32.6134 21.6587 33.2938C21.8348 33.7642 21.9844 34.2446 22.1068 34.7327L22.099 34.7313ZM14.2243 30.2791H17.0174L17.3085 30.2717H17.3228C17.3371 30.2717 17.3513 30.2717 17.3656 30.2717C17.3756 30.2548 17.3865 30.2386 17.3984 30.2231C17.4087 30.2102 17.4147 30.1942 17.4156 30.1774C17.4059 30.0737 17.3868 29.9711 17.3585 29.8711C17.3042 29.6885 17.2386 29.5088 17.1772 29.3276L17.1265 29.1907C17.1214 29.184 17.1189 29.1756 17.1194 29.1671C17.1087 29.1476 17.0992 29.1274 17.0909 29.1067C16.7555 28.1509 16.4206 27.1951 16.0861 26.2392C15.9191 25.762 15.7479 25.2819 15.5794 24.8092C15.5741 24.8015 15.5716 24.7921 15.5723 24.7826C15.5623 24.765 15.5523 24.7458 15.5438 24.7282C15.3911 24.6707 15.3482 24.684 15.304 24.8121C15.0186 25.6369 14.7331 26.4626 14.4477 27.2893C14.3606 27.5412 14.2764 27.793 14.1865 28.0434C14.1094 28.2643 14.0266 28.4778 13.9453 28.6943C13.7926 29.1671 13.6384 29.6399 13.4886 30.1141C13.4774 30.1684 13.4707 30.2236 13.4686 30.2791H13.7897H14.2243ZM32.9529 14.1565C32.6399 13.731 32.2764 13.3475 31.8711 13.0151C31.4118 12.6304 30.8964 12.3232 30.344 12.105C30.1884 12.0461 30.0328 11.9842 29.8787 11.9223C29.8073 11.8944 29.7417 11.862 29.6717 11.8399C29.3188 11.7024 28.9488 11.6166 28.5728 11.5851L28.1189 11.5026C28.1047 11.4938 28.0904 11.479 28.0747 11.479C27.6465 11.4702 27.2141 11.4643 26.7845 11.4569L26.4562 11.4776C26.3592 11.4835 26.2621 11.4893 26.1651 11.4982C25.8625 11.5276 25.5604 11.5576 25.2588 11.588L24.8892 11.6248L24.8635 11.6425C24.8492 11.6499 24.8349 11.6572 24.8206 11.6661L24.7036 11.6779L23.9686 11.7515C23.8459 11.7633 23.7231 11.778 23.6004 11.781C23.569 11.781 23.5105 11.7412 23.5076 11.7162C23.4916 11.6027 23.4935 11.4873 23.5133 11.3745C23.579 11.1256 23.6646 10.8826 23.746 10.6381C23.8316 10.3759 23.9215 10.1167 24.01 9.85603C24.1242 9.52024 24.2412 9.18445 24.3539 8.84718C24.5109 8.37589 24.6651 7.90165 24.8221 7.43036C24.9477 7.05333 25.0775 6.67777 25.2046 6.30222C25.2131 6.2816 25.2245 6.26098 25.2317 6.24036C25.3687 5.80883 25.5014 5.37584 25.6413 4.94579C25.7483 4.61736 25.8654 4.29334 25.9795 3.96639C26.0766 3.68509 26.1794 3.40526 26.2707 3.12101C26.2735 3.10471 26.2795 3.08917 26.2882 3.0753C26.297 3.06144 26.3084 3.04954 26.3217 3.04033C26.335 3.03111 26.35 3.02477 26.3658 3.02168C26.3815 3.01859 26.3977 3.01881 26.4134 3.02234C26.6296 3.03965 26.8465 3.00065 27.0442 2.90893C27.2541 2.82436 27.4395 2.68599 27.5831 2.50689C27.7267 2.32779 27.8237 2.11388 27.8649 1.88535C27.9157 1.60996 27.8858 1.32521 27.7792 1.06738C27.6726 0.809542 27.494 0.590307 27.2662 0.437609C27.0102 0.27506 26.7096 0.204003 26.4106 0.235414C26.1116 0.266825 25.831 0.398958 25.612 0.611397C25.4775 0.749067 25.3725 0.914296 25.3036 1.09643C25.2348 1.27857 25.2037 1.47356 25.2124 1.66885C25.2143 1.86793 25.2603 2.06393 25.3469 2.24185C25.4335 2.41977 25.5583 2.5749 25.7119 2.69538C25.8004 2.76902 25.9018 2.82351 25.986 2.90157C26.0052 2.92034 26.0202 2.94329 26.0298 2.96876C26.0394 2.99422 26.0435 3.02158 26.0416 3.04885C26.0086 3.18836 25.9607 3.32369 25.8989 3.45239C25.7305 3.77934 25.5507 4.10041 25.3765 4.42442C25.358 4.46124 25.338 4.49806 25.3195 4.53341C25.2952 4.58054 25.2709 4.62619 25.2481 4.67332C25.171 4.81471 25.0925 4.95462 25.0169 5.09601C24.8442 5.41708 24.6729 5.73667 24.5031 6.05773C24.2961 6.44949 24.0921 6.84125 23.8865 7.23596C23.8794 7.24038 23.8694 7.24479 23.8666 7.25216C23.7295 7.49959 23.5925 7.74554 23.4584 7.99444C23.2686 8.34643 23.083 8.70137 22.896 9.05337C22.8732 9.09019 22.8518 9.12701 22.829 9.16383C22.8061 9.20065 22.7919 9.23305 22.7733 9.26839C22.692 9.41567 22.6092 9.56737 22.5293 9.71612C22.2681 10.2007 22.0055 10.6852 21.7443 11.1712C21.6173 11.4083 21.4974 11.6499 21.3746 11.8885C21.3589 11.9164 21.3418 11.9444 21.3261 11.9739C21.3161 11.9916 21.3047 12.0092 21.2947 12.0284C21.2847 12.0475 21.2776 12.0461 21.269 12.0564L21.1862 12.1374C21.0078 12.1668 20.8294 12.1978 20.6525 12.2228C20.3342 12.2699 20.0145 12.3126 19.6948 12.3583L19.2938 12.4172C19.2719 12.4157 19.25 12.4157 19.2281 12.4172C18.8613 12.4629 18.4945 12.5085 18.1277 12.5571C17.8223 12.5969 17.5169 12.6411 17.2129 12.6823L15.9655 12.8296C15.73 12.8576 15.4931 12.8841 15.2576 12.9135C15.1263 12.9297 14.9964 12.9533 14.8666 12.9724C14.6211 12.9916 14.3742 13.0004 14.1301 13.0328C13.7077 13.0888 13.2866 13.1595 12.8656 13.2243C12.8347 13.2213 12.8037 13.2213 12.7728 13.2243C12.7072 13.248 12.6353 13.2449 12.5719 13.2156C12.5084 13.1862 12.4583 13.133 12.4317 13.0667C12.1035 12.482 11.7743 11.8973 11.4441 11.3126C11.2229 10.912 11.0031 10.5099 10.779 10.1123C10.5492 9.70286 10.3137 9.29638 10.0811 8.88842C9.92983 8.61595 9.77854 8.34496 9.62583 8.0725C9.31755 7.5261 9.00833 6.97969 8.69814 6.43329C8.66817 6.38027 8.61251 6.34345 8.58397 6.29043C8.53116 6.19029 8.48834 6.08425 8.44125 5.98115C8.39272 5.88984 8.34562 5.79705 8.29424 5.70721L6.68506 2.88316C6.64607 2.82638 6.63008 2.75616 6.64047 2.6874C6.65086 2.61865 6.68683 2.55679 6.74072 2.51496C6.79744 2.46443 6.85084 2.41007 6.90057 2.35222C7.0536 2.19173 7.16565 1.99456 7.22668 1.77839C7.2877 1.56222 7.2958 1.33381 7.25024 1.11361C7.22165 0.971802 7.17359 0.834926 7.10752 0.707128C7.06374 0.625137 7.01107 0.548551 6.95052 0.478847C6.90474 0.424911 6.85408 0.375596 6.79924 0.331569C6.74121 0.28505 6.67964 0.243433 6.61513 0.207119C6.58944 0.190919 6.56518 0.171773 6.53949 0.154099C6.51446 0.136044 6.48767 0.120742 6.45956 0.108443C6.21709 0.00313874 5.94985 -0.0257773 5.69149 0.0253365C5.43312 0.0764502 5.19519 0.205308 5.00765 0.395684C4.82012 0.586059 4.69136 0.82944 4.63759 1.09518C4.58383 1.36092 4.60746 1.63713 4.70552 1.88903C4.80339 2.16231 4.98393 2.3958 5.22042 2.55495C5.4569 2.7141 5.73675 2.79045 6.01855 2.7727C6.13416 2.7727 6.24976 2.76828 6.36537 2.7727C6.4125 2.77841 6.4589 2.78927 6.50381 2.8051C6.70362 3.33236 6.90057 3.86108 7.10466 4.38687C7.29591 4.87877 7.49429 5.36921 7.68839 5.85965C7.88249 6.35008 8.07517 6.83168 8.26784 7.31622L8.42198 7.67706C8.43911 7.72271 8.45766 7.76837 8.47479 7.8155C8.51332 7.92006 8.55043 8.0261 8.58754 8.13067C8.62464 8.23524 8.66318 8.33981 8.70457 8.44437C8.94434 9.05999 9.18411 9.67414 9.42816 10.2853C9.56089 10.6197 9.69933 10.9481 9.83635 11.2824C9.86204 11.3502 9.88773 11.4179 9.91484 11.4857L9.94481 11.5593L10.0262 11.7802C10.0533 11.8539 10.0804 11.9275 10.1104 12.0011C10.246 12.3443 10.3887 12.6845 10.5157 13.0321C10.5512 13.1581 10.5751 13.2873 10.5871 13.4179C10.5926 13.4416 10.5929 13.4663 10.588 13.4901C10.5832 13.514 10.5732 13.5364 10.5588 13.5557C10.5444 13.5751 10.5261 13.5909 10.505 13.6019C10.484 13.613 10.4608 13.6191 10.4372 13.6197C10.3287 13.6389 10.2174 13.6448 10.1075 13.6565C10.0926 13.6596 10.0778 13.6635 10.0633 13.6683C10.0485 13.673 10.0331 13.6755 10.0176 13.6757L8.48049 13.7906L7.78259 13.8421L6.6137 13.9305C6.48382 13.9437 6.35395 13.9526 6.22407 13.9643C6.0942 13.9761 5.96432 13.9894 5.83587 14.0085C5.65319 14.0365 5.47193 14.0689 5.29068 14.1028C5.10942 14.1367 4.92816 14.172 4.74548 14.2044C4.49713 14.2487 4.25375 14.3188 4.01903 14.4135C3.94196 14.4445 3.86489 14.4769 3.78925 14.5122C3.68792 14.5594 3.58801 14.6094 3.49096 14.6595C3.25547 14.7862 3.02569 14.9305 2.79876 15.0792L2.77022 15.1087C2.76435 15.1144 2.75993 15.1215 2.75737 15.1293C2.73592 15.1341 2.71524 15.142 2.696 15.1529C2.18867 15.5384 1.74975 16.0115 1.39867 16.5513C0.823119 17.4353 0.422042 18.4277 0.218363 19.4718C0.0770064 20.0897 0.00375403 20.7221 0 21.357C0 21.9755 0.0142721 22.5956 0.0214082 23.2141C0.0214082 23.2465 0.027117 23.2775 0.0299715 23.3099C0.0627973 23.6928 0.0970504 24.0742 0.125595 24.4572C0.135585 24.5985 0.121313 24.7429 0.134158 24.8843C0.191246 25.5617 0.258325 26.2392 0.313987 26.9182C0.335395 27.173 0.329686 27.4337 0.346813 27.687C0.376784 28.1803 0.413892 28.6723 0.448145 29.1642C0.452426 29.2231 0.459562 29.282 0.465271 29.3409C0.495243 29.659 0.528068 29.9771 0.553758 30.2982C0.56803 30.4897 0.562322 30.6826 0.576594 30.8741C0.599429 31.1686 0.637964 31.4558 0.659372 31.7474C0.672217 31.9256 0.659372 32.1053 0.67079 32.2835C0.699334 32.6988 0.736441 33.1127 0.76784 33.5265C0.776403 33.6399 0.779258 33.7548 0.787821 33.8682C0.816365 34.2467 0.847764 34.6252 0.873454 35.0037C0.882017 35.123 0.873454 35.2423 0.88059 35.3616C0.911988 35.7711 0.966223 36.1805 0.976213 36.5914C0.978676 37.2098 1.08093 37.8235 1.27878 38.4073C1.59202 39.2547 2.10338 40.0091 2.76736 40.6032C2.8768 40.7297 2.99257 40.8501 3.11418 40.9641C3.8726 41.6074 4.69611 42.1644 5.57041 42.6254C5.80447 42.7476 6.03711 42.8713 6.27545 42.9833C6.34065 43.0005 6.40817 43.0065 6.47526 43.0009C6.47228 42.9375 6.46417 42.8744 6.451 42.8124C6.4319 42.7615 6.40543 42.7138 6.3725 42.671C6.08628 42.2194 5.85928 41.7306 5.69743 41.2174C5.49368 40.6348 5.3371 40.0358 5.22931 39.4265C5.20362 39.2792 5.16365 39.1319 5.1451 38.9847C5.09943 38.6238 5.06375 38.2615 5.02093 37.8992C4.99381 37.668 4.93958 37.4397 4.93387 37.2085C4.91389 36.4574 4.91104 35.7048 4.90105 34.9522C4.90247 34.9291 4.90247 34.906 4.90105 34.883C4.87536 34.5045 4.84967 34.1274 4.8254 33.7489C4.81827 33.6488 4.82112 33.5472 4.81256 33.447C4.78259 33.1156 4.74833 32.7843 4.71979 32.4544C4.70837 32.3321 4.71265 32.2069 4.70124 32.0862C4.67412 31.768 4.63844 31.4514 4.61275 31.1333C4.60133 30.986 4.62274 30.8387 4.60276 30.6914C4.52941 30.2538 4.49596 29.81 4.50285 29.3659C4.50159 29.2836 4.49539 29.2015 4.4843 29.12C4.45576 28.793 4.42436 28.4661 4.39867 28.1391C4.38582 27.9668 4.38582 27.7915 4.37298 27.6192C4.34729 27.251 4.31732 26.8828 4.2902 26.5146C4.28164 26.4248 4.28164 26.3335 4.27022 26.2422C4.24167 25.9299 4.19458 25.6177 4.18459 25.304C4.17031 24.8622 4.19315 24.4203 4.17745 23.9785C4.18021 23.4353 4.26842 22.8961 4.43863 22.382C4.53711 22.0344 4.68839 21.7016 4.81541 21.3629C4.88073 21.2046 4.95804 21.052 5.04662 20.9063C5.34634 20.4866 5.65033 20.0668 5.97431 19.6677C6.16497 19.459 6.36752 19.2623 6.58088 19.0786C6.91484 18.8194 7.24167 18.5484 7.58706 18.3068C7.84253 18.1301 8.12369 17.9931 8.39486 17.8385C8.51189 17.7752 8.63035 17.7163 8.75167 17.6603C8.84158 17.6191 8.93292 17.5778 9.02426 17.5395C9.29829 17.4246 9.57802 17.326 9.86346 17.2391C9.99334 17.2391 10.1232 17.2435 10.2517 17.2273C10.6127 17.1846 10.9724 17.133 11.3321 17.0844L12.4524 16.9372L13.0133 16.8635C13.2659 16.837 13.52 16.8134 13.7726 16.784C14.1608 16.7383 14.5476 16.6897 14.9358 16.6426C14.99 16.6338 15.0442 16.6249 15.0985 16.6146C15.1527 16.6043 15.2069 16.5969 15.2612 16.5911C15.4524 16.5704 15.6465 16.5601 15.8378 16.5366C16.0119 16.5145 16.1846 16.4762 16.3587 16.4526C16.6484 16.4114 16.9396 16.3746 17.2307 16.3363C17.579 16.3009 17.9272 16.27 18.274 16.2317C18.6465 16.189 19.019 16.1404 19.3915 16.0933C19.6713 16.0667 19.951 16.0461 20.2307 16.0122C20.5661 15.971 20.8987 15.9195 21.2298 15.8709C21.3283 15.8547 21.4267 15.834 21.5266 15.8223C21.6751 15.8061 21.8235 15.8002 21.9719 15.7825C22.2317 15.7516 22.4914 15.7147 22.7512 15.6794C22.8168 15.675 22.8825 15.675 22.9467 15.6647C23.1237 15.6367 23.2992 15.5969 23.4776 15.5748C23.9015 15.5218 24.3283 15.4776 24.7521 15.4276L26.1251 15.2685C26.2992 15.2479 26.4734 15.2287 26.6475 15.2096C26.7645 15.1934 26.8801 15.1713 26.9986 15.1595C27.1413 15.1448 27.284 15.1418 27.4267 15.1242C27.6822 15.0918 27.9363 15.0505 28.1917 15.0167H28.2988C28.6356 14.971 28.971 14.9283 29.3078 14.8812C29.4705 14.8576 29.6318 14.8237 29.7931 14.7957C30.0585 14.7663 30.324 14.7339 30.5909 14.7074C30.7093 14.6956 30.8292 14.6985 30.9477 14.6867C31.1703 14.6647 31.3915 14.6352 31.6127 14.6087C31.7783 14.5895 31.9439 14.5733 32.108 14.5527C32.3078 14.5277 32.5076 14.5027 32.7046 14.4688C32.7769 14.4545 32.8461 14.4265 32.9087 14.3863C32.9305 14.3773 32.9498 14.3627 32.9646 14.3438C32.9794 14.3249 32.9893 14.3025 32.9933 14.2785C32.9973 14.2546 32.9953 14.23 32.9875 14.2071C32.9796 14.1842 32.9663 14.1638 32.9486 14.1477L32.9529 14.1565Z" fill="url(#paint0_linear_33_44)"/>
<defs>
<linearGradient id="paint0_linear_33_44" x1="0" y1="21.5018" x2="32.9953" y2="21.5018" gradientUnits="userSpaceOnUse">
<stop offset="0.05" stop-color="#FFDC8E"/>
<stop offset="1" stop-color="#FF7700"/>
</linearGradient>
</defs>
</svg>
