<svg width="642" height="104" viewBox="0 0 642 104" fill="none" xmlns="http://www.w3.org/2000/svg">
<g clip-path="url(#clip0_5715_16885)">
<rect width="642" height="104" fill="#FF1200"/>
<path d="M339.75 -62C419.969 -62 485 2.47102 485 82H339.75C419.969 82 485 146.471 485 226H-96V82C-95.9999 2.47106 -30.9693 -62 49.25 -62H339.75Z" fill="#82B0FF"/>
<path d="M234.626 33.0498C245.663 33.0499 253.854 40.5416 253.854 52.1777C253.853 63.8136 245.713 71.3046 234.626 71.3047C223.589 71.3047 215.399 63.8137 215.398 52.1777C215.398 40.5415 223.589 33.0498 234.626 33.0498ZM390.191 33C395.135 33 399.63 34.5481 402.077 36.9951L399.081 45.2354C397.183 43.1878 394.536 42.0391 391.59 42.0391C386.096 42.0391 382.65 45.5351 382.65 52.0273C382.65 58.5195 386.446 62.3651 392.438 62.3652C395.585 62.3652 398.482 61.2661 401.278 58.2197V67.9082C398.859 69.8434 395.503 71.2168 390.982 71.3008L390.491 71.2549C379.304 71.2549 371.464 63.5137 371.464 52.0273C371.464 40.541 379.454 33 390.191 33ZM417.959 56.2725C417.959 60.1678 419.607 62.2656 422.703 62.2656C425.799 62.2655 427.597 60.0179 427.597 56.2725V33.8994H438.784V55.623C438.784 65.6112 432.491 71.205 422.803 71.2051C413.014 71.2051 406.672 65.6112 406.672 55.623V33.8994H417.959V56.2725ZM445.177 70.5059L445.126 70.4561H445.177V70.5059ZM71.1699 41.9395H57.3359V49.2305H68.5225L65.5762 57.2715H57.3359V70.4561H46V33.9492H74.1162L71.1699 41.9395ZM88.8486 70.4561H77.5127V33.8994H88.8486V70.4561ZM121.96 41.9395H108.126V49.2305H119.312L116.366 57.2715H108.126V70.4561H96.7891V33.9492H124.906L121.96 41.9395ZM157.317 70.4561H145.831L144.433 65.5117H131.598L130.2 70.4561H118.863L132.197 33.8994H144.033L157.317 70.4561ZM181.988 52.9766L187.182 33.8994H193.625L198.719 52.9766L203.513 33.8994H214.5L204.562 70.4561H195.423L190.278 51.4785L185.085 70.4561H175.896L166.007 33.8994H177.294L181.988 52.9766ZM274.828 33.8994C285.166 33.8994 290.31 39.1428 290.31 46.584C290.31 51.7777 287.314 55.2739 282.17 57.2715L291.458 70.4561H279.622L272.481 59.0195H270.084V70.4561H259.047V33.8994H274.828ZM307.439 62.4648H321.723L318.776 70.4561H296.103V33.8994H307.439V62.4648ZM338.503 33.8994C351.787 33.8995 359.128 40.7908 359.128 52.0771C359.128 63.3637 351.337 70.4559 338.503 70.4561H324.969V33.8994H338.503ZM460.158 33.9492C470.596 33.9492 475.84 38.8931 475.84 46.9336C475.84 54.9739 469.647 59.7186 459.21 59.7188H456.312V70.4561H445.177V33.9492H460.158ZM524.732 33.8994C531.474 33.8995 536.918 39.343 536.918 46.085C536.918 52.8267 531.474 58.2704 524.732 58.2705H536.918V70.4561H488.176V58.2705C488.176 51.5285 493.619 46.085 500.361 46.085H488.176C488.176 39.343 493.619 33.8994 500.361 33.8994H524.732ZM575.47 33.8994C582.212 33.8994 587.655 39.343 587.655 46.085H575.47C582.212 46.085 587.655 51.5285 587.655 58.2705C587.655 65.0123 582.212 70.4561 575.47 70.4561H551.099C544.357 70.4559 538.913 65.0122 538.913 58.2705V46.085C538.913 39.3431 544.357 33.8996 551.099 33.8994H575.47ZM591.653 66.71H596.647V67.959H591.653V70.4561H590.655V64.2129H591.653V66.71ZM596.647 55.373V56.6719H591.653L596.647 58.9697V60.168L591.653 62.4648H596.647V63.6641H591.204C591.054 63.664 590.905 63.6135 590.805 63.5137C590.655 63.4138 590.655 63.1143 590.655 63.1143V61.7158L595.399 59.5186L590.655 57.3213V55.9229C590.655 55.7231 590.705 55.6233 590.805 55.5234C590.903 55.3755 591.197 55.3731 591.204 55.373H596.647ZM234.626 41.7393C229.882 41.7393 226.586 45.236 226.586 52.1777C226.586 59.1192 229.832 62.6152 234.626 62.6152C239.37 62.6152 242.666 59.1691 242.666 52.1777C242.666 45.1861 239.37 41.7393 234.626 41.7393ZM336.305 62.415L338.253 62.4648C344.446 62.4648 348.041 58.4195 348.041 52.127C348.041 45.8346 344.445 41.8896 338.253 41.8896H336.305V62.415ZM133.596 58.4697H142.436L137.99 43.2383L133.596 58.4697ZM456.312 51.9775H459.409C463.305 51.9775 464.853 49.9798 464.853 46.9834C464.853 43.987 463.305 41.9395 459.409 41.9395H456.312V51.9775ZM270.034 51.7773H273.879C277.624 51.7773 279.373 49.6799 279.373 46.7334C279.373 43.7871 277.624 41.79 273.879 41.79H270.034V51.7773Z" fill="white"/>
</g>
<defs>
<clipPath id="clip0_5715_16885">
<rect width="642" height="104" fill="white"/>
</clipPath>
</defs>
</svg>
