<svg width="1274" height="629" viewBox="0 0 1274 629" fill="none" xmlns="http://www.w3.org/2000/svg">
<path d="M456.729 362.801C505.538 362.801 545.123 402.385 545.123 451.194C545.123 500.003 505.556 539.589 456.729 539.589H545.123V627.983L456.712 628.001C407.903 628.001 368.317 588.433 368.317 539.606V628.001H279.924V362.801H456.729ZM825.064 362.783C825.064 411.592 785.497 451.177 736.67 451.177H825.064C825.064 499.986 785.497 539.571 736.67 539.571H825.064V627.983H648.259C599.432 627.983 559.864 588.416 559.864 539.589V362.783H825.064ZM176.806 362.783C225.615 362.783 265.2 402.35 265.2 451.177V627.966C216.391 627.966 176.806 588.398 176.806 539.571V627.966H88.4121C39.603 627.966 0.0175781 588.38 0.0175781 539.571C0.017602 490.762 39.5854 451.177 88.4121 451.177H0.0175781C0.0178284 402.368 39.5855 362.783 88.4121 362.783H176.806ZM115.118 115.118C115.118 51.5505 166.668 0.000253443 230.253 0C293.838 0 345.371 51.5327 345.371 115.118C345.371 51.5503 396.921 0 460.507 0V230.253C460.507 293.838 408.957 345.371 345.389 345.371C281.803 345.371 230.271 293.821 230.271 230.253C230.271 293.838 178.721 345.371 115.153 345.371C51.5855 345.371 0 293.838 0 230.253V0H115.118V115.118ZM825.064 0C825.064 63.5854 773.514 115.118 709.946 115.118H825.064C825.064 178.703 773.514 230.235 709.946 230.235H825.064V345.354H594.811C531.225 345.353 479.676 293.803 479.676 230.235V0H825.064Z" fill="#09142D"/>
<path d="M1141.72 549.199H1127.3L1134.38 524.48L1141.72 549.199Z" fill="#09142D"/>
<path fill-rule="evenodd" clip-rule="evenodd" d="M1171.38 322.82C1227.6 322.821 1273.18 368.4 1273.18 424.619H1171.38C1227.6 424.62 1273.18 470.2 1273.18 526.42C1273.18 582.64 1227.6 628.22 1171.38 628.221H967.801C911.581 628.221 866 582.64 866 526.42V424.619C866 368.4 911.581 322.82 967.801 322.82H1028.65C1028.65 323.007 1028.66 323.194 1028.66 323.381V323.859C1028.7 324.379 1028.78 324.88 1028.88 325.4C1029.02 326.12 1029.1 326.86 1029.16 327.58C1029.16 327.82 1029.18 328.06 1029.2 328.32V328.42C1029.24 329.62 1029.46 330.78 1029.84 331.92C1030.18 332.9 1030.42 333.9 1030.46 334.939C1030.46 335.299 1030.46 335.66 1030.44 336.02C1030.4 336.359 1030.4 336.699 1030.4 337.039C1030.44 337.619 1030.54 338.179 1030.82 338.699C1031.24 339.499 1031.46 340.301 1031.48 341.141C1031.48 341.66 1031.44 342.181 1031.28 342.721C1031.14 343.22 1031.08 343.741 1031.1 344.24C1031.1 344.7 1031.2 345.159 1031.34 345.619C1031.38 345.719 1031.4 345.82 1031.4 345.92C1031.44 346.22 1031.4 346.52 1031.32 346.82C1031.02 348.08 1030.72 349.361 1030.5 350.641C1030.5 350.68 1030.5 350.72 1030.48 350.76C1030.46 350.92 1030.42 351.08 1030.4 351.24C1030.38 351.38 1030.36 351.52 1030.34 351.66V351.699C1030.3 352.019 1030.26 352.341 1030.22 352.641V352.66C1030.14 353.32 1030.1 353.981 1030.08 354.641V356.381C1030.18 357.841 1030.54 359.241 1031.62 360.461C1031.9 360.761 1032.12 361.12 1032.16 361.52C1032.18 361.76 1032.14 362.041 1031.98 362.301C1031.92 362.401 1031.9 362.521 1031.9 362.641C1031.9 362.76 1031.92 362.88 1031.96 363C1032.36 364.34 1032.26 365.759 1032.58 367.119C1032.58 367.179 1032.6 367.241 1032.6 367.301C1032.6 367.501 1032.6 367.701 1032.5 367.9C1032.06 368.84 1031.7 369.821 1031.02 370.641C1030.88 370.8 1030.74 370.96 1030.58 371.1C1030.14 371.499 1029.76 372.02 1029.78 372.619C1029.78 372.719 1029.78 372.8 1029.82 372.9C1029.88 373.12 1029.9 373.32 1029.9 373.52C1029.9 374.16 1029.7 374.761 1029.5 375.381C1029.36 375.801 1029.28 376.221 1029.3 376.641C1029.3 376.78 1029.32 376.94 1029.36 377.08C1029.4 377.24 1029.42 377.38 1029.44 377.52C1029.44 377.62 1029.46 377.72 1029.48 377.82V377.92C1029.54 378.76 1029.36 379.561 1028.94 380.301C1028.9 380.361 1028.88 380.421 1028.84 380.48C1028.74 380.66 1028.62 380.82 1028.48 381C1028.48 381 1028.48 381 1028.46 381.02C1028.46 381.02 1028.46 381.041 1028.44 381.061C1028.44 381.066 1028.42 381.099 1028.4 381.1C1027.98 381.62 1027.68 382.201 1027.62 382.881C1027.58 383.201 1027.54 383.501 1027.5 383.801C1027.24 385.301 1026.74 386.741 1026.2 388.141C1025.52 389.9 1025.16 391.74 1024.56 393.5C1024.52 393.62 1024.48 393.74 1024.44 393.859C1023.74 395.819 1023.54 397.9 1023.08 399.9C1023.02 400.18 1022.94 400.42 1022.78 400.66C1022.78 400.68 1022.74 400.7 1022.74 400.74C1021.96 401.7 1021.36 402.74 1021.2 404C1021.18 404.16 1021.14 404.38 1021.04 404.48C1020.06 405.3 1019.94 406.72 1018.88 407.52C1018.64 407.699 1018.48 408.02 1018.4 408.359C1018.36 408.499 1018.36 408.66 1018.36 408.82V409.061C1018.36 409.2 1018.32 409.36 1018.26 409.5C1018.18 409.78 1018.08 410.04 1018 410.32C1017.98 410.42 1017.94 410.5 1017.92 410.6C1017.3 412.52 1016.66 414.441 1016.06 416.381C1015.48 418.2 1014.92 420.02 1014.38 421.859L1014.3 422.119C1014.22 422.379 1014.14 422.64 1014.06 422.9C1013.98 423.16 1013.94 423.439 1013.86 423.699C1013.86 423.719 1013.86 423.74 1013.84 423.76C1013.76 424 1013.62 424.219 1013.36 424.359C1013.34 424.36 1013.32 424.381 1013.3 424.4C1013.22 424.44 1013.12 424.46 1013.02 424.48C1012.98 424.481 1012.96 424.5 1012.94 424.52C1012.82 424.6 1012.74 424.8 1012.64 424.92C1012.64 424.92 1012.62 424.96 1012.6 424.98C1012.56 425.04 1012.52 425.1 1012.48 425.16C1012.46 425.2 1012.42 425.241 1012.4 425.301C1012.3 425.461 1012.2 425.621 1012.08 425.801C1012.08 425.801 1012.06 425.821 1012.04 425.84C1010.7 427.94 1009.36 430.04 1008.18 432.24C1008.04 432.48 1007.92 432.74 1007.82 433C1007.82 433 1007.82 433.041 1007.8 433.061C1007.78 433.12 1007.74 433.18 1007.72 433.24C1007.54 433.64 1007.36 434.06 1007.14 434.439C1006.98 434.719 1006.82 435 1006.62 435.26C1006.46 435.46 1006.28 435.621 1006.1 435.801C1006.1 435.801 1006.09 435.806 1006.08 435.82C1005.9 435.98 1005.72 436.16 1005.58 436.359C1003.6 439.259 1001.8 442.26 1000.26 445.4C1000.22 445.48 1000.18 445.58 1000.14 445.66C1000.1 445.74 1000.06 445.84 1000 445.92C999.84 446.26 999.68 446.62 999.9 446.98C1000 447.16 1000.04 447.301 1000.04 447.461V447.48C1000.04 447.62 999.959 447.761 999.859 447.881C999.853 447.889 999.797 447.962 999.76 448C999.5 448.28 999.32 448.6 999.18 448.939C998.22 451.359 997.261 453.781 996.381 456.221C996.381 456.26 996.36 456.3 996.34 456.34C996.26 456.56 996.18 456.8 996.1 457.02C996.1 457.08 996.059 457.12 996.039 457.18C995.519 458.66 995.021 460.16 994.561 461.66C994.441 462.08 994.3 462.5 994.18 462.92C994.16 463.02 994.12 463.121 994.1 463.221C993.92 463.86 993.719 464.541 993.859 465.221V465.5C993.819 465.58 993.76 465.66 993.66 465.74C993.38 465.98 993.12 466.22 992.92 466.5C992.74 466.74 992.56 466.98 992.42 467.24C991.82 468.32 991.579 469.54 991.439 470.82C991.42 471.06 991.44 471.28 991.52 471.5C991.539 471.56 991.58 471.62 991.6 471.68C991.7 471.84 991.761 472 991.801 472.18C991.801 472.24 991.84 472.28 991.84 472.34C991.88 472.58 991.921 472.76 991.961 472.92C991.961 472.92 991.961 472.96 991.961 472.98C992.041 473.24 992.121 473.4 992.301 473.5C992.381 473.54 992.48 473.58 992.6 473.6C992.779 473.64 993 473.679 993.279 473.699C993.619 473.739 993.961 473.8 994.301 473.82C996 473.88 997.72 473.94 999.42 474C999.94 474 1000.44 474.039 1000.96 474.039H1001.02C1001.74 474.059 1002.46 474.08 1003.16 474.1C1004.26 474.14 1005.38 474.16 1006.48 474.18C1013.54 474.34 1020.58 474.48 1027.64 474.58C1033.24 474.68 1038.82 474.781 1044.42 474.801C1051.96 474.841 1059.5 474.801 1067.04 474.801H1068.34C1072.28 474.901 1076.2 474.899 1080.14 474.939C1083.6 474.979 1087.06 474.9 1090.52 474.9C1095.4 474.9 1100.3 474.94 1105.18 474.9C1112.58 474.84 1119.96 474.72 1127.36 474.68C1132.2 474.66 1137.06 474.639 1141.9 474.439C1142.88 474.399 1143.86 474.319 1144.8 474.02C1144.94 473.98 1145.06 473.919 1145.18 473.859C1145.46 473.719 1145.7 473.499 1145.74 473.199V473.1C1145.74 472.82 1145.8 472.56 1145.86 472.32C1145.86 472.32 1145.86 472.299 1145.86 472.279C1145.96 471.9 1146.1 471.54 1146.14 471.141C1146.14 471.001 1146.16 470.88 1146.18 470.74V470.721C1146.22 470.281 1146.22 469.82 1146.18 469.4V469.32C1146.08 468.44 1145.78 467.6 1145.16 466.92C1144.98 466.74 1144.84 466.54 1144.72 466.34C1144.58 466.1 1144.46 465.859 1144.34 465.619C1144.26 465.419 1144.18 465.219 1144.12 465.02C1144 464.66 1143.88 464.28 1143.76 463.92C1143.1 461.96 1142.38 460.039 1141.64 458.119C1141.64 458.079 1141.6 458.04 1141.6 458C1141.3 457.22 1140.98 456.44 1140.68 455.66C1140.64 455.58 1140.62 455.499 1140.58 455.439C1140.52 455.3 1140.48 455.179 1140.42 455.039C1140.42 455.02 1140.42 455 1140.4 454.961C1140.28 454.681 1140.16 454.38 1140.04 454.1C1140.02 454.04 1140 453.999 1139.98 453.939C1139.66 453.14 1139.32 452.339 1138.98 451.539C1138.7 450.899 1138.44 450.26 1138.16 449.641C1137.94 449.141 1137.72 448.641 1137.2 448.381C1137.14 448.361 1137.1 448.319 1137.06 448.279C1137.04 448.279 1137.02 448.241 1137 448.221C1136.92 448.121 1136.86 448.02 1136.88 447.881C1136.88 447.821 1136.9 447.759 1136.94 447.699C1137.2 447.239 1137.04 446.859 1136.84 446.439C1135.36 443.38 1133.86 440.34 1132 437.5C1131.84 437.26 1131.66 437 1131.5 436.76C1131.5 436.74 1131.46 436.72 1131.46 436.68C1130.98 435.98 1130.52 435.3 1130.16 434.5C1130.12 434.42 1130.1 434.359 1130.06 434.279V434.26C1128.62 431.1 1126.96 428.06 1125.06 425.141C1124.82 424.781 1124.6 424.38 1124.18 424.18C1124.06 424.12 1123.96 424.039 1123.88 423.939C1123.84 423.899 1123.82 423.86 1123.78 423.82C1123.74 423.74 1123.7 423.639 1123.66 423.539V423.48C1123.66 423.42 1123.62 423.359 1123.62 423.279C1123.58 422.94 1123.46 422.62 1123.36 422.301C1123.28 422.061 1123.22 421.84 1123.14 421.6C1122.48 419.5 1121.82 417.42 1121.16 415.32C1120.54 413.32 1119.8 411.38 1119.12 409.4C1119.12 409.38 1119.12 409.34 1119.1 409.32C1119 409 1118.88 408.68 1118.76 408.34C1118.76 408.28 1118.72 408.22 1118.68 408.18C1118.6 408.02 1118.5 407.88 1118.38 407.74C1118.02 407.32 1117.7 406.879 1117.28 406.539C1116.3 405.759 1115.54 404.78 1114.8 403.801C1114.58 403.521 1114.38 403.219 1114.16 402.939C1114.1 402.86 1114.04 402.779 1113.98 402.699V402.68C1113.62 402.2 1113.28 401.719 1112.9 401.279C1112.44 400.719 1111.94 400.199 1111.34 399.779C1111.1 399.599 1110.86 399.379 1110.72 399.119C1110.6 398.939 1110.5 398.76 1110.4 398.561C1110.34 398.441 1110.26 398.319 1110.2 398.199C1110.04 397.92 1109.86 397.639 1109.7 397.359C1109.7 397.34 1109.66 397.319 1109.66 397.279C1109.52 397.04 1109.38 396.82 1109.24 396.58C1109.18 396.48 1109.14 396.4 1109.08 396.301C1108.68 395.661 1108.34 395 1108.02 394.32C1107.88 394.06 1107.76 393.78 1107.64 393.52C1106.82 391.7 1106.12 389.8 1105.12 388.061C1105.02 387.881 1104.96 387.68 1104.96 387.5C1104.96 387.32 1104.96 387.16 1105 386.98C1105.46 384.84 1105.44 382.66 1105.54 380.5V379.5C1105.54 379.38 1105.5 379.28 1105.48 379.16V379.119C1105.48 379.099 1105.48 379.059 1105.46 379.039C1105.42 378.919 1105.4 378.799 1105.36 378.68C1105.3 378.54 1105.28 378.38 1105.26 378.221V377.699C1105.26 377.6 1105.28 377.48 1105.32 377.381C1105.56 376.381 1105.62 375.359 1105.72 374.359C1105.72 374.16 1105.74 373.98 1105.72 373.801C1105.72 373.281 1105.58 372.761 1105.3 372.301C1105.02 371.841 1104.92 371.34 1104.9 370.84V370.34C1104.92 369.86 1104.94 369.4 1104.94 368.92V368.461C1104.92 368.261 1104.88 368.039 1104.8 367.859C1104.8 367.84 1104.78 367.819 1104.76 367.779C1104.72 367.7 1104.66 367.62 1104.6 367.561C1104.22 367.121 1104.06 366.62 1103.96 366.1C1103.94 365.96 1103.92 365.839 1103.88 365.699C1103.84 365.519 1103.82 365.34 1103.8 365.16C1103.76 364.94 1103.74 364.74 1103.72 364.52V363.08C1103.72 363.02 1103.72 362.941 1103.7 362.881V362.82C1103.7 362.76 1103.7 362.7 1103.68 362.66C1103.58 362.06 1103.4 361.479 1103.18 360.939C1102.92 360.28 1102.7 359.6 1102.5 358.92C1102.26 358.04 1102.04 357.14 1101.84 356.26C1101.84 356.22 1101.84 356.2 1101.82 356.16C1101.78 356.02 1101.78 355.88 1101.76 355.721V355.199C1101.76 355.1 1101.8 354.98 1101.82 354.881C1102.04 353.921 1102.22 352.96 1102.44 352C1102.48 351.8 1102.52 351.579 1102.52 351.359C1102.52 351.16 1102.44 350.979 1102.24 350.859C1101.78 350.539 1101.6 350.16 1101.6 349.74V349.52C1101.62 349.36 1101.68 349.18 1101.74 349C1101.8 348.86 1101.8 348.699 1101.78 348.52V348.381C1101.76 347.921 1101.88 347.52 1102.18 347.18C1102.58 346.72 1102.7 346.18 1102.7 345.58V344.439C1102.7 344.22 1102.72 343.98 1102.76 343.76C1102.76 343.64 1102.78 343.52 1102.8 343.4C1102.8 343.4 1102.8 343.379 1102.8 343.359C1102.8 343.3 1102.8 343.239 1102.82 343.18C1102.86 342.94 1102.9 342.699 1102.96 342.439C1103.04 342.14 1103.08 341.819 1103.04 341.52C1103.04 341.42 1103.02 341.32 1102.98 341.24C1102.98 341.24 1102.98 341.2 1102.98 341.18C1102.94 341.04 1102.92 340.9 1102.92 340.76V340.48C1102.96 340.1 1103.12 339.739 1103.26 339.359C1103.48 338.84 1103.62 338.339 1103.72 337.779V337.721C1103.72 337.661 1103.74 337.58 1103.74 337.52C1103.74 337.46 1103.74 337.38 1103.76 337.32V336.801C1103.76 335.841 1104.1 334.88 1104.34 333.92C1104.42 333.56 1104.62 333.24 1104.96 333.02C1105.36 332.76 1105.52 332.36 1105.66 331.92C1105.84 331.32 1105.92 330.72 1105.88 330.141C1105.88 330.061 1105.88 330 1105.86 329.92V329.881L1105.82 329.6C1105.82 329.54 1105.8 329.46 1105.78 329.4L1105.74 329.24C1105.74 329.2 1105.72 329.159 1105.7 329.119C1105.64 328.9 1105.56 328.68 1105.46 328.461C1105.36 328.241 1105.3 328.04 1105.3 327.84C1105.28 327.54 1105.36 327.24 1105.56 326.92C1106 326.2 1106.34 325.4 1106.84 324.721C1107.27 324.112 1107.64 323.475 1107.95 322.82H1171.38ZM986.08 568.58H1004.42V547.141H1017.62L1022.32 534.18H1004.42V522.16H1026.66L1031.34 509.221H986.08V568.58ZM1036.94 568.58H1055.28V509.221H1036.94V568.58ZM1067.9 568.58H1086.24V547.141H1099.44L1104.14 534.18H1086.24V522.16H1108.48L1113.16 509.221H1067.9V568.58ZM1103.68 568.58H1121.74L1124.04 560.6H1144.76L1147.16 568.58H1165.68L1144.22 509.221H1125.14L1103.68 568.58Z" fill="#09142D"/>
<path d="M1252.72 623.6H1258.74V625.119H1252.72V628.1H1251.54V620.6H1252.72V623.6Z" fill="#09142D"/>
<path d="M1258.74 611.439H1252.72L1258.74 614.199V615.66L1252.72 618.42H1258.74V619.9H1252.2C1252 619.9 1251.84 619.84 1251.72 619.721C1251.6 619.601 1251.54 619.44 1251.54 619.24V617.58L1257.24 614.92L1251.54 612.279V610.6C1251.54 610.38 1251.6 610.239 1251.72 610.119C1251.84 610.02 1252 609.961 1252.2 609.961H1258.74V611.439Z" fill="#09142D"/>
<path d="M1171.38 0C1227.6 0.000461849 1273.18 45.5811 1273.18 101.801C1273.18 158.02 1227.6 203.599 1171.38 203.6H1273.2V305.4H1112.39C1112.43 305.294 1112.46 305.186 1112.5 305.08C1113.38 302.88 1114.48 300.76 1115.18 298.48C1115.7 296.801 1116.38 295.16 1116.9 293.48C1117.28 292.28 1117.66 291.1 1118.36 290.02C1118.84 289.28 1119.16 288.48 1119.38 287.6C1119.88 285.5 1120.14 283.32 1121.02 281.32C1121.08 281.16 1121.1 281 1121.14 280.82C1121.76 278.54 1121.98 276.16 1123.06 273.98C1123.38 273.32 1123.76 272.579 1123.78 271.779C1123.78 270.84 1124.14 269.98 1124.5 269.16C1125 268.02 1125.5 266.92 1125.38 265.721C1125.34 265.261 1125.22 264.8 1124.96 264.32C1124.82 264.061 1124.76 263.881 1124.78 263.721C1124.8 263.481 1125.02 263.3 1125.42 263C1126.18 262.48 1126.58 261.779 1126.6 260.859C1126.6 260.52 1126.62 260.18 1126.6 259.84C1126.58 257.82 1126.92 255.861 1127.6 253.961C1128.24 252.161 1128.64 250.34 1128.58 248.4V247.48C1128.58 247.341 1128.58 247.22 1128.6 247.08V246.82C1128.6 246.62 1128.64 246.42 1128.68 246.24V246.141C1128.68 246.081 1128.7 246.021 1128.72 245.961C1128.74 245.841 1128.76 245.739 1128.8 245.619C1128.92 245.159 1129.08 244.68 1129.32 244.24C1129.48 243.92 1129.62 243.54 1129.64 243.16V242.881C1129.64 242.781 1129.62 242.68 1129.62 242.6C1129.6 241.96 1129.8 241.4 1129.94 240.801C1129.98 240.581 1130.04 240.36 1130.1 240.141C1130.12 240.041 1130.16 239.939 1130.18 239.859V239.84C1130.24 239.6 1130.32 239.359 1130.38 239.119C1130.84 237.759 1131.08 236.28 1131.98 235.08C1132.22 234.76 1132.4 234.359 1132.32 233.939C1132.3 233.84 1132.28 233.719 1132.28 233.619C1132.24 232.899 1132.52 232.239 1132.78 231.6C1133.36 230.2 1134 228.8 1134.62 227.4C1134.72 227.181 1134.84 226.98 1135.04 226.84C1135.68 226.38 1136.02 225.681 1136.16 224.961C1136.2 224.781 1136.24 224.619 1136.28 224.439C1136.28 224.38 1136.32 224.32 1136.32 224.24C1136.32 224.16 1136.36 224.1 1136.38 224.02C1136.42 223.82 1136.48 223.62 1136.52 223.42C1136.52 223.38 1136.52 223.36 1136.54 223.32C1136.64 222.9 1136.76 222.5 1136.88 222.1C1136.94 221.9 1137 221.699 1137.06 221.52C1137.34 220.62 1137.64 219.74 1137.94 218.84C1138.46 217.36 1138.98 215.82 1139.18 214.24C1139.22 213.96 1139.32 213.72 1139.46 213.48C1140.08 212.32 1140.62 211.12 1141.3 209.98C1142.06 208.72 1142.38 207.279 1142.88 205.939C1143.96 202.98 1145.04 200.02 1145.58 196.9C1145.74 195.981 1145.96 195.06 1145.92 194.141C1145.92 194.021 1145.92 193.899 1145.9 193.779C1145.84 193.24 1145.8 192.719 1145.76 192.18C1145.68 190.88 1145.66 189.58 1145.58 188.26C1145.58 188 1145.54 187.74 1145.52 187.48V186.82C1145.58 186.2 1145.84 185.679 1146.3 185.199C1146.9 184.58 1147.42 183.92 1147.78 183.141C1148.78 181.021 1149.38 178.74 1150.42 176.66C1150.5 176.52 1150.54 176.34 1150.58 176.18C1151.42 172.48 1152.34 168.8 1152.7 165C1152.8 164.06 1152.88 163.1 1153 162.141C1153.02 161.981 1153.04 161.82 1153.06 161.66C1153.06 161.66 1153.06 161.62 1153.06 161.6C1153.16 160.94 1153.28 160.3 1153.46 159.66C1154.14 157.04 1154.94 154.44 1156.18 152.02C1156.52 151.36 1156.82 150.64 1156.8 149.9L1156.75 149.699C1156.73 149.519 1156.67 149.34 1156.6 149.16C1156.38 148.6 1156.28 148.06 1156.22 147.5C1156.12 146.42 1155.54 145.44 1155.6 144.32V144.061C1155.58 143.961 1155.52 143.859 1155.46 143.779C1155.34 143.579 1155.28 143.4 1155.26 143.18C1155.26 143 1155.26 142.799 1155.32 142.6C1155.38 142.28 1155.42 141.939 1155.42 141.619V141.221C1155.42 141.101 1155.4 141.001 1155.36 140.881C1155.36 140.881 1155.36 140.879 1155.36 140.859C1155.34 140.76 1155.3 140.66 1155.28 140.561C1155.28 140.541 1155.28 140.52 1155.26 140.48C1155.2 140.301 1155.12 140.14 1155.02 139.98C1155.02 139.98 1155 139.94 1154.98 139.92C1154.88 139.74 1154.76 139.579 1154.6 139.439C1154.08 138.92 1153.96 138.38 1153.92 137.801V137.16C1153.9 136.54 1153.88 135.94 1153.84 135.32V134.98C1153.84 134.901 1153.82 134.801 1153.8 134.721V134.539C1153.78 134.459 1153.76 134.359 1153.72 134.279C1153.72 134.271 1153.66 134.117 1153.62 134.039C1153.44 133.719 1153.38 133.379 1153.36 133.02V132.359C1153.3 131.68 1152.84 131.24 1152.22 130.9C1151.74 130.64 1151.24 130.621 1150.82 131.061C1150.66 131.22 1150.48 131.38 1150.32 131.52L1150.26 131.58C1149.96 131.84 1149.68 132.101 1149.4 132.381C1149.4 132.384 1149.36 132.42 1149.34 132.42L1148.18 133.58C1148.02 133.74 1147.86 133.901 1147.72 134.061C1146.96 134.82 1146.46 134.901 1146.12 134.301C1146.06 134.201 1146.02 134.1 1145.98 133.961C1145.94 133.861 1145.9 133.74 1145.86 133.6C1145.82 133.44 1145.78 133.279 1145.74 133.119C1145.7 132.979 1145.68 132.839 1145.64 132.699C1145.62 132.599 1145.58 132.479 1145.56 132.359C1145.5 132.1 1145.42 131.84 1145.36 131.58C1145.04 130.28 1144.74 128.98 1144.44 127.66C1144.38 127.36 1144.32 127.06 1144.24 126.76C1143.8 124.74 1143.34 122.72 1142.48 120.82C1142.3 120.42 1142.14 120.019 1141.96 119.619C1141.78 119.18 1141.62 118.74 1141.46 118.301C1141.16 117.501 1140.88 116.681 1140.58 115.881C1139.94 114.221 1139.26 112.6 1138.34 111.1C1137.08 109.06 1136.16 106.8 1134.4 105.08C1134.4 105.08 1134.36 105.04 1134.34 105.02C1134.3 104.98 1134.26 104.919 1134.22 104.859C1134.22 104.82 1134.2 104.78 1134.2 104.74C1134.2 104.7 1134.22 104.661 1134.26 104.641C1134.48 104.441 1134.56 104.26 1134.56 104.08C1134.56 103.8 1134.36 103.56 1134.16 103.32C1133.88 102.98 1133.62 102.641 1133.36 102.301C1132.26 100.881 1131.22 99.4204 1130.06 98.0605C1129.94 97.9205 1129.82 97.7806 1129.7 97.6406L1129.62 97.5605C1129.28 97.1807 1128.92 96.8807 1128.4 96.7207C1128.02 96.6007 1127.62 96.4795 1127.38 96.1797C1127.3 96.0797 1127.26 95.9798 1127.22 95.8398V95.8008C1127.22 95.7608 1127.22 95.7202 1127.2 95.6602V95.2207C1127.14 95.0807 1126.98 94.9198 1126.9 94.7598C1126.4 93.7998 1125.72 92.9596 1125.06 92.0996C1124.96 91.9797 1124.86 91.8406 1124.76 91.7207C1124.72 91.6807 1124.7 91.6396 1124.66 91.5996C1122.68 88.9797 1120.42 86.6004 1117.92 84.4805C1111.46 79.0005 1104.18 74.9395 1096.26 72.0195C1091.7 70.3396 1086.96 69.3205 1082.16 68.5605C1078.42 68.0406 1074.76 67.5606 1071.06 67.5605C1068.72 67.5605 1066.38 67.6203 1064.04 67.8203C1060.8 68.0803 1057.54 68.3594 1054.38 69.1191C1051.82 69.7391 1049.32 70.48 1046.88 71.3398C1043.26 72.5998 1039.78 74.1199 1036.44 75.9199C1033.36 77.5798 1030.4 79.4793 1027.6 81.6191C1026.78 82.2591 1025.96 82.9001 1025.16 83.5801C1025.16 83.5801 1025.12 83.5994 1025.12 83.6191C1024.94 83.7591 1024.78 83.9206 1024.6 84.0605C1024.32 84.3004 1024.04 84.5394 1023.78 84.7793C1023.24 85.2791 1022.68 85.7794 1022.16 86.2793C1022.16 86.2793 1022.12 86.3003 1022.12 86.3203C1021.68 86.7401 1021.2 87.1608 1020.86 87.6406C1020.5 88.1403 1020.12 88.6399 1019.74 89.0996C1019.74 89.0996 1019.74 89.1186 1019.72 89.1191C1019.14 89.819 1018.5 90.4997 1017.82 91.0996C1017.5 91.3795 1017.22 91.6802 1016.96 92C1016.96 92 1016.92 92.0405 1016.92 92.0605C1016.64 92.4004 1016.4 92.8003 1016.14 93.1602C1015.86 93.5001 1015.54 93.8209 1015.06 93.9609C1015.06 93.9609 1015.02 93.9804 1015 93.9805C1014.82 94.0605 1014.68 94.2795 1014.54 94.4395C1014.32 94.6591 1014.1 94.8994 1013.88 95.1191C1011.96 97.1591 1010.32 99.4394 1008.86 101.859C1002.72 111.979 998.639 122.86 996.439 134.48C996.14 136.02 995.941 137.56 995.881 139.119C995.881 139.259 995.859 139.42 995.859 139.58V139.68C995.859 139.94 995.94 140.16 996.16 140.26C996.54 140.44 996.68 140.66 996.74 140.92V141C996.76 141.24 996.739 141.519 996.699 141.779C996.599 143.859 996.48 145.94 996.58 148.02C996.62 148.719 996.679 149.419 996.779 150.119C996.899 150.999 997.04 151.86 997.16 152.74V152.92C997.18 153.28 997.12 153.48 996.9 153.58C996.8 153.62 996.66 153.66 996.48 153.66H996.34C996 153.66 995.68 153.56 995.34 153.5C994.7 153.36 994.04 153.5 993.5 153.82C992.86 154.2 992.381 154.821 992.301 155.561C992.221 156.18 992.16 156.8 992.1 157.42C992.1 157.52 992.1 157.6 992.08 157.699V158.08H991.98C991.94 158.54 991.901 158.98 991.881 159.42C991.881 159.54 991.879 159.659 991.859 159.779C991.859 159.919 991.86 160.061 991.84 160.221C991.84 160.5 991.821 160.781 991.801 161.061C991.801 161.46 991.779 161.86 991.779 162.26V163.9C991.779 164.78 991.78 165.641 991.6 166.48V166.561C991.56 166.76 991.5 166.98 991.42 167.18C991.36 167.34 991.341 167.5 991.301 167.68C991.261 167.9 991.241 168.101 991.221 168.301V168.561C991.221 169.1 991.34 169.64 991.699 170.119C991.819 170.279 991.92 170.439 991.92 170.619V170.859C991.8 171.399 991.86 171.94 991.76 172.48C991.72 172.72 991.699 172.94 991.699 173.18V173.48C991.719 174.1 991.88 174.7 992.18 175.26C992.72 176.26 992.999 177.34 993.279 178.42C993.459 179.14 993.6 179.88 993.84 180.58C994.36 182.08 994.779 183.62 995.619 185C996.739 186.86 996.82 189.14 997.9 191.02C997.9 191.039 997.9 191.079 997.92 191.119C998.34 192.159 998.84 193.18 998.92 194.34V194.381C998.92 194.561 999 194.721 999.08 194.881C999.62 195.981 999.94 197.161 1000.32 198.32C1001.1 200.6 1001.72 202.9 1002.6 205.16C1003.14 206.56 1003.66 207.94 1004.5 209.18C1004.68 209.44 1004.8 209.72 1004.9 210.02C1004.92 210.1 1004.94 210.18 1004.96 210.26V210.42C1005.04 210.9 1005.02 211.38 1004.88 211.82C1004.6 212.72 1004.68 213.6 1004.62 214.5C1004.62 214.62 1004.62 214.72 1004.6 214.84V215.52C1004.64 215.86 1004.74 216.18 1004.92 216.5C1005.2 217.04 1005.4 217.6 1005.56 218.16C1005.56 218.18 1005.56 218.2 1005.58 218.24C1005.6 218.34 1005.64 218.461 1005.66 218.561C1005.66 218.62 1005.7 218.7 1005.72 218.76V218.84C1005.9 219.62 1006.02 220.419 1006.18 221.199V221.34C1006.18 221.5 1006.16 221.641 1006.08 221.801C1006.02 221.9 1006 222 1005.96 222.1C1005.96 222.1 1005.94 222.22 1005.94 222.26V222.42C1005.94 222.66 1006.02 222.92 1006.14 223.18C1006.26 223.44 1006.34 223.701 1006.38 223.961C1006.38 224.041 1006.42 224.141 1006.42 224.221V224.34C1006.48 224.78 1006.46 225.24 1006.36 225.68C1006.3 225.979 1006.28 226.259 1006.28 226.539C1006.28 226.819 1006.32 227.101 1006.42 227.381C1006.66 228.06 1006.8 228.74 1006.9 229.439C1006.9 229.439 1006.9 229.46 1006.9 229.48C1006.96 229.96 1007.02 230.421 1007.06 230.9C1007.12 231.6 1007.16 232.3 1007.22 233C1007.26 233.6 1007.3 234.221 1007.46 234.801C1007.54 235.06 1007.58 235.321 1007.6 235.561C1007.6 235.82 1007.6 236.101 1007.5 236.381C1007.42 236.661 1007.38 236.941 1007.38 237.24C1007.38 237.52 1007.42 237.82 1007.5 238.1C1007.9 239.54 1008.06 241.04 1008.68 242.4C1008.82 242.7 1008.92 243.041 1008.98 243.381C1009.24 245.06 1009.58 246.72 1010 248.359C1010 248.399 1010.02 248.46 1010.02 248.5C1010.02 248.66 1010.02 248.8 1009.98 248.939C1009.9 249.239 1009.88 249.56 1009.9 249.859C1009.9 250.179 1009.96 250.5 1010.02 250.82C1010.04 250.98 1010.08 251.141 1010.12 251.301C1010.12 251.38 1010.14 251.44 1010.16 251.52C1010.68 253.84 1011.64 256.041 1012.06 258.381C1012.32 259.8 1012.88 261.16 1013.06 262.619C1013.24 264.059 1013.62 265.5 1014.36 266.76C1014.44 266.9 1014.52 267.04 1014.58 267.18C1014.58 267.18 1014.58 267.22 1014.6 267.221C1014.62 267.281 1014.66 267.341 1014.68 267.4C1014.68 267.44 1014.72 267.499 1014.74 267.539C1014.74 267.579 1014.78 267.62 1014.78 267.68C1014.78 267.72 1014.8 267.78 1014.82 267.82C1014.82 267.86 1014.82 267.88 1014.84 267.92C1014.84 268 1014.88 268.061 1014.9 268.141V268.279C1015 268.959 1014.96 269.64 1014.84 270.359C1014.84 270.439 1014.8 270.541 1014.8 270.641V270.66C1014.76 270.96 1014.72 271.239 1014.72 271.539V271.98C1014.76 272.24 1014.86 272.501 1015.04 272.721C1015.8 273.741 1016.28 274.9 1016.9 276C1017.04 276.24 1017.14 276.5 1017.2 276.779C1017.2 276.859 1017.22 276.92 1017.24 277C1017.24 277.22 1017.24 277.44 1017.18 277.66C1017.1 277.92 1017.06 278.14 1017.04 278.34V278.461C1017.04 278.98 1017.28 279.26 1017.98 279.66C1019.58 280.54 1020.24 282.081 1020.74 283.641C1021.12 284.82 1021.62 285.821 1022.42 286.721C1023.56 288.001 1024.46 289.421 1025.28 290.9C1025.72 291.66 1026.08 292.5 1026.62 293.16C1027.62 294.36 1028.1 295.74 1028.46 297.18C1028.46 297.18 1028.46 297.22 1028.46 297.24C1028.58 297.72 1028.68 298.2 1028.8 298.68C1028.82 298.78 1028.84 298.88 1028.84 298.98C1028.84 299.24 1028.8 299.461 1028.62 299.641C1028.56 299.7 1028.5 299.739 1028.42 299.779C1028.38 299.799 1028.32 299.819 1028.28 299.859C1028.08 299.939 1027.92 300.101 1027.82 300.301C1027.8 300.341 1027.76 300.4 1027.76 300.439C1027.74 300.499 1027.72 300.559 1027.7 300.619C1027.66 300.719 1027.62 300.84 1027.6 300.939C1027.6 300.939 1027.56 301.059 1027.56 301.119C1027.44 301.559 1027.38 302 1027.36 302.439V303.461C1027.36 303.521 1027.38 303.581 1027.4 303.66V303.721C1027.46 304 1027.54 304.26 1027.64 304.539C1027.76 304.825 1027.86 305.113 1027.95 305.4H866.02V203.6C866.02 147.38 911.6 101.801 967.82 101.801H866.02C866 45.5808 911.581 0 967.801 0H1171.38Z" fill="#09142D"/>
</svg>
