<svg width="258" height="40" viewBox="0 0 258 40" fill="none" xmlns="http://www.w3.org/2000/svg">
<path d="M17.605 34.9686H16.6843L17.1363 33.3947L17.605 34.9686Z" fill="white"/>
<path fill-rule="evenodd" clip-rule="evenodd" d="M19.4988 20.5546C23.0885 20.5546 25.9987 23.4567 25.9988 27.0363H19.4988C23.0885 27.0363 25.9988 29.9385 25.9988 33.5182C25.9988 37.0978 23.0885 40 19.4988 40H6.50006C2.91037 40 0 37.0978 0 33.5182V27.0363C2.94894e-05 23.4567 2.91039 20.5546 6.50006 20.5546H10.3855C10.3856 20.5665 10.386 20.5784 10.386 20.5903V20.6207C10.3885 20.6538 10.3937 20.6857 10.4001 20.7189C10.409 20.7647 10.4141 20.8118 10.4179 20.8576C10.4179 20.8729 10.4191 20.8882 10.4204 20.9048V20.9111C10.423 20.9875 10.437 21.0614 10.4613 21.134C10.483 21.1964 10.4984 21.26 10.501 21.3262C10.501 21.3491 10.5009 21.3721 10.4996 21.395C10.497 21.4166 10.4971 21.4383 10.4971 21.4599C10.4997 21.4968 10.506 21.5325 10.5239 21.5656C10.5507 21.6166 10.5648 21.6676 10.5661 21.7211C10.5661 21.7542 10.5634 21.7873 10.5532 21.8217C10.5443 21.8535 10.5405 21.8866 10.5417 21.9184C10.5417 21.9477 10.5482 21.977 10.5571 22.0062C10.5596 22.0126 10.5609 22.019 10.5609 22.0254C10.5635 22.0445 10.5609 22.0636 10.5558 22.0827C10.5367 22.1629 10.5175 22.2445 10.5035 22.326C10.5035 22.3285 10.5035 22.331 10.5022 22.3335C10.5009 22.3437 10.4984 22.3539 10.4971 22.3641C10.4958 22.373 10.4945 22.382 10.4932 22.3909V22.3934C10.4907 22.4137 10.4882 22.4342 10.4856 22.4533V22.4545C10.4805 22.4966 10.4779 22.5386 10.4766 22.5806V22.6914C10.483 22.7844 10.506 22.8736 10.5749 22.9512C10.5928 22.9703 10.6069 22.9932 10.6095 23.0186C10.6107 23.0339 10.6082 23.0518 10.598 23.0684C10.5942 23.0747 10.5929 23.0824 10.5929 23.09C10.5929 23.0976 10.5942 23.1053 10.5967 23.1129C10.6223 23.1982 10.6159 23.2886 10.6363 23.3752C10.6363 23.379 10.6375 23.3829 10.6375 23.3867C10.6375 23.3995 10.6375 23.4122 10.6312 23.4249C10.6031 23.4848 10.58 23.5472 10.5366 23.5994C10.5277 23.6096 10.5188 23.6197 10.5086 23.6286C10.4805 23.6541 10.4562 23.6872 10.4574 23.7254C10.4574 23.7317 10.4575 23.7369 10.4601 23.7433C10.4639 23.7573 10.4652 23.77 10.4652 23.7827C10.4652 23.8234 10.4524 23.8617 10.4396 23.9012C10.4307 23.9279 10.4256 23.9547 10.4269 23.9814C10.4269 23.9903 10.4281 24.0005 10.4306 24.0094C10.4332 24.0196 10.4345 24.0285 10.4357 24.0374C10.4357 24.0438 10.4371 24.0502 10.4384 24.0565V24.0629C10.4422 24.1164 10.4306 24.1674 10.4038 24.2145C10.4013 24.2183 10.4 24.2221 10.3975 24.2259C10.3911 24.2374 10.3834 24.2475 10.3745 24.259C10.3745 24.259 10.3745 24.259 10.3733 24.2602C10.3733 24.2602 10.3732 24.2616 10.3719 24.2628C10.3717 24.2632 10.3706 24.2653 10.3694 24.2653C10.3426 24.2984 10.3233 24.3355 10.3195 24.3787C10.317 24.3991 10.3145 24.4182 10.3119 24.4373C10.2953 24.5328 10.2633 24.6245 10.2289 24.7136C10.1854 24.8257 10.1625 24.9428 10.1242 25.0549C10.1217 25.0625 10.119 25.0701 10.1165 25.0778C10.0718 25.2026 10.0591 25.3351 10.0297 25.4624C10.0259 25.4802 10.0207 25.4955 10.0105 25.5108C10.0105 25.5121 10.008 25.5133 10.008 25.5159C9.95819 25.577 9.91981 25.6432 9.9096 25.7234C9.90832 25.7336 9.90575 25.7477 9.89937 25.754C9.83686 25.8062 9.82919 25.8966 9.76157 25.9475C9.74625 25.959 9.736 25.9794 9.73089 26.001C9.72833 26.0099 9.72827 26.0202 9.72827 26.0304V26.0457C9.72826 26.0546 9.72574 26.0647 9.72191 26.0736C9.7168 26.0915 9.71043 26.108 9.70532 26.1259C9.70405 26.1322 9.70149 26.1373 9.70021 26.1437C9.66062 26.2659 9.6198 26.3882 9.58149 26.5118C9.54446 26.6276 9.50871 26.7435 9.47424 26.8606L9.46913 26.8771C9.46402 26.8937 9.45889 26.9103 9.45379 26.9269C9.44868 26.9434 9.44604 26.9612 9.44094 26.9777C9.44094 26.979 9.44097 26.9803 9.43969 26.9816C9.43459 26.9969 9.42562 27.0109 9.40902 27.0198C9.40776 27.0198 9.40654 27.0211 9.40527 27.0224C9.40017 27.0249 9.3937 27.0262 9.38732 27.0275C9.38478 27.0275 9.38348 27.0287 9.3822 27.03C9.37455 27.0351 9.3695 27.0478 9.36312 27.0555C9.36312 27.0555 9.36178 27.058 9.3605 27.0593C9.35796 27.0631 9.35544 27.0669 9.3529 27.0708C9.35162 27.0733 9.34906 27.0759 9.34778 27.0797C9.3414 27.0899 9.33499 27.1001 9.32733 27.1115C9.32733 27.1115 9.32589 27.1129 9.32471 27.114C9.23916 27.2477 9.15363 27.3815 9.07829 27.5216C9.06936 27.5368 9.06172 27.5534 9.05534 27.5699C9.05534 27.5699 9.05536 27.5725 9.0541 27.5738C9.05282 27.5776 9.05026 27.5814 9.04898 27.5852C9.0375 27.6107 9.02598 27.6374 9.01194 27.6616C9.00173 27.6794 8.99142 27.6973 8.97865 27.7138C8.96843 27.7265 8.95696 27.7368 8.94547 27.7483C8.94547 27.7483 8.94511 27.7486 8.94423 27.7495C8.93274 27.7597 8.92124 27.7711 8.9123 27.7838C8.78588 27.9685 8.67093 28.1596 8.5726 28.3595C8.57005 28.3646 8.56754 28.3709 8.56499 28.376C8.56243 28.3811 8.55984 28.3875 8.55601 28.3926C8.54579 28.4142 8.5356 28.4372 8.54965 28.4601C8.55602 28.4715 8.5585 28.4805 8.5585 28.4907V28.4919C8.55849 28.5008 8.55341 28.5098 8.54703 28.5174C8.54662 28.518 8.54307 28.5226 8.54067 28.525C8.52408 28.5428 8.51257 28.5632 8.50363 28.5848C8.44233 28.7389 8.38111 28.8931 8.32492 29.0484C8.32491 29.051 8.32357 29.0535 8.3223 29.056C8.3172 29.07 8.31207 29.0853 8.30697 29.0993C8.30697 29.1031 8.30438 29.1057 8.3031 29.1095C8.2699 29.2037 8.23807 29.2993 8.2087 29.3948C8.20103 29.4215 8.19204 29.4482 8.18438 29.475C8.1831 29.4814 8.18054 29.4878 8.17926 29.4941C8.16777 29.5349 8.15499 29.5782 8.16393 29.6215V29.6393C8.16137 29.6444 8.15758 29.6495 8.15121 29.6546C8.13333 29.6698 8.11671 29.6851 8.10394 29.7029C8.09245 29.7182 8.08095 29.7335 8.07201 29.7501C8.03371 29.8188 8.01835 29.8965 8.00941 29.978C8.00814 29.9933 8.00942 30.0073 8.01452 30.0213C8.0158 30.0251 8.01836 30.0289 8.01964 30.0327C8.02602 30.0429 8.02993 30.0531 8.03248 30.0646C8.03248 30.0684 8.03497 30.071 8.03498 30.0748C8.03753 30.0901 8.04015 30.1015 8.04271 30.1117C8.04271 30.1117 8.04271 30.1143 8.04271 30.1156C8.04781 30.1321 8.05292 30.1423 8.06441 30.1486C8.0695 30.1512 8.07586 30.1537 8.08349 30.155C8.09497 30.1575 8.10903 30.1601 8.12689 30.1613C8.1486 30.1639 8.1704 30.1678 8.19211 30.169C8.30064 30.1729 8.41044 30.1767 8.51897 30.1805C8.55217 30.1805 8.58416 30.183 8.61737 30.183H8.62111C8.66708 30.1842 8.71309 30.1855 8.75779 30.1868C8.82802 30.1894 8.89956 30.1906 8.96979 30.1919C9.42057 30.2021 9.87011 30.211 10.3209 30.2174C10.6784 30.2238 11.0347 30.2302 11.3923 30.2315C11.8737 30.234 12.3551 30.2315 12.8365 30.2315H12.9196C13.1711 30.2378 13.4215 30.2377 13.6731 30.2403C13.894 30.2428 14.1149 30.2378 14.3358 30.2378C14.6473 30.2378 14.9602 30.2404 15.2718 30.2378C15.7443 30.234 16.2155 30.2263 16.688 30.2238C16.997 30.2225 17.3074 30.2212 17.6165 30.2085C17.679 30.2059 17.7416 30.2008 17.8017 30.1817C17.8106 30.1792 17.8182 30.1753 17.8258 30.1715C17.8437 30.1626 17.8591 30.1486 17.8616 30.1295V30.1231C17.8616 30.1053 17.8654 30.0888 17.8692 30.0735C17.8692 30.0735 17.8692 30.0722 17.8692 30.0709C17.8756 30.0467 17.8846 30.0239 17.8872 29.9984C17.8872 29.9895 17.8884 29.9818 17.8897 29.9729V29.9717C17.8923 29.9437 17.8923 29.9143 17.8897 29.8876V29.8825C17.8833 29.8265 17.8642 29.773 17.8246 29.7297C17.8131 29.7182 17.8042 29.7055 17.7965 29.6927C17.7876 29.6775 17.7799 29.6621 17.7722 29.6469C17.7671 29.6341 17.762 29.6214 17.7581 29.6087C17.7505 29.5858 17.7428 29.5616 17.7352 29.5387C17.693 29.4139 17.6471 29.2916 17.5999 29.1693C17.5998 29.1668 17.5973 29.1643 17.5973 29.1617C17.5781 29.1121 17.5577 29.0624 17.5385 29.0127C17.536 29.0077 17.5347 29.0025 17.5322 28.9987C17.5283 28.9898 17.5258 28.9821 17.5219 28.9732C17.5219 28.972 17.5219 28.9707 17.5207 28.9682C17.513 28.9504 17.5053 28.9312 17.4976 28.9134C17.4963 28.9096 17.4951 28.907 17.4939 28.9032C17.4734 28.8523 17.4517 28.8013 17.43 28.7503C17.4122 28.7096 17.3955 28.6689 17.3776 28.6295C17.3636 28.5976 17.3495 28.5658 17.3163 28.5493C17.3125 28.548 17.31 28.5453 17.3074 28.5428C17.3062 28.5428 17.3048 28.5403 17.3036 28.5391C17.2985 28.5327 17.2947 28.5263 17.296 28.5174C17.296 28.5136 17.2971 28.5097 17.2997 28.5059C17.3163 28.4766 17.3061 28.4524 17.2933 28.4256C17.1989 28.2308 17.1031 28.0373 16.9843 27.8565C16.9741 27.8412 16.9626 27.8246 16.9524 27.8093C16.9524 27.8081 16.9499 27.8068 16.9499 27.8042C16.9192 27.7597 16.8898 27.7164 16.8668 27.6654C16.8643 27.6603 16.863 27.6565 16.8605 27.6514V27.6501C16.7685 27.449 16.6625 27.2554 16.5412 27.0695C16.5259 27.0466 16.5118 27.0211 16.485 27.0083C16.4773 27.0045 16.471 26.9994 16.4659 26.993C16.4633 26.9905 16.462 26.988 16.4594 26.9854C16.4569 26.9803 16.4544 26.9739 16.4518 26.9675V26.9638C16.4518 26.96 16.4492 26.9561 16.4492 26.951C16.4466 26.9294 16.439 26.909 16.4326 26.8887C16.4275 26.8734 16.4237 26.8593 16.4186 26.844C16.3765 26.7103 16.3343 26.5779 16.2922 26.4442C16.2526 26.3169 16.2053 26.1934 16.1619 26.0673C16.1619 26.066 16.1619 26.0635 16.1606 26.0622C16.1542 26.0418 16.1466 26.0214 16.1389 25.9998C16.1389 25.996 16.1364 25.9921 16.1338 25.9896C16.1287 25.9794 16.1224 25.9705 16.1147 25.9616C16.0917 25.9349 16.0712 25.9068 16.0444 25.8851C15.9819 25.8355 15.9334 25.7731 15.8861 25.7108C15.8721 25.6929 15.8593 25.6737 15.8452 25.6559C15.8414 25.6508 15.8376 25.6457 15.8338 25.6406V25.6394C15.8108 25.6088 15.7891 25.5782 15.7648 25.5502C15.7354 25.5146 15.7035 25.4814 15.6651 25.4547C15.6498 25.4432 15.6346 25.4292 15.6256 25.4127C15.618 25.4012 15.6115 25.3898 15.6052 25.3771C15.6013 25.3695 15.5961 25.3617 15.5923 25.3541C15.5821 25.3363 15.5706 25.3184 15.5604 25.3006C15.5603 25.2994 15.5579 25.298 15.5579 25.2955C15.549 25.2803 15.54 25.2663 15.5311 25.251C15.5273 25.2447 15.5247 25.2396 15.5209 25.2332C15.4953 25.1925 15.4736 25.1504 15.4531 25.1071C15.4442 25.0906 15.4366 25.0727 15.429 25.0561C15.3766 24.9403 15.3318 24.8193 15.268 24.7085C15.2616 24.6971 15.2578 24.6843 15.2578 24.6729C15.2578 24.6614 15.2578 24.6512 15.2603 24.6398C15.2897 24.5035 15.2884 24.3647 15.2948 24.2272V24.1635C15.2948 24.1558 15.2923 24.1495 15.291 24.1418V24.1392C15.291 24.1379 15.291 24.1354 15.2898 24.1341C15.2872 24.1265 15.2858 24.1189 15.2833 24.1113C15.2795 24.1024 15.2782 24.0922 15.2769 24.082V24.0488C15.2769 24.0425 15.2783 24.0349 15.2808 24.0286C15.2961 23.9649 15.3 23.8998 15.3064 23.8362C15.3064 23.8235 15.3076 23.812 15.3064 23.8006C15.3064 23.7675 15.2974 23.7344 15.2795 23.7051C15.2617 23.6758 15.2553 23.6439 15.254 23.6121V23.5802C15.2553 23.5497 15.2565 23.5204 15.2565 23.4898V23.4606C15.2552 23.4479 15.2527 23.4338 15.2476 23.4223C15.2476 23.421 15.2463 23.4197 15.245 23.4172C15.2425 23.4121 15.2386 23.4071 15.2348 23.4033C15.2105 23.3753 15.2004 23.3434 15.194 23.3103C15.1927 23.3013 15.1914 23.2937 15.1889 23.2848C15.1863 23.2733 15.185 23.2619 15.1838 23.2504C15.1812 23.2364 15.1799 23.2237 15.1787 23.2097V23.118C15.1787 23.1142 15.1786 23.1091 15.1773 23.1053V23.1015C15.1773 23.0976 15.1773 23.0938 15.176 23.0913C15.1697 23.0531 15.1582 23.0161 15.1441 22.9817C15.1275 22.9397 15.1135 22.8964 15.1007 22.8531C15.0854 22.7971 15.0713 22.7398 15.0586 22.6837C15.0586 22.6812 15.0586 22.6799 15.0573 22.6774C15.0548 22.6685 15.0547 22.6596 15.0535 22.6494V22.6162C15.0535 22.6099 15.056 22.6023 15.0573 22.5959C15.0714 22.5348 15.0828 22.4736 15.0969 22.4125C15.0994 22.3998 15.102 22.3857 15.102 22.3717C15.102 22.359 15.0969 22.3475 15.0841 22.3399C15.0548 22.3195 15.0432 22.2954 15.0432 22.2686V22.2546C15.0445 22.2444 15.0484 22.2329 15.0522 22.2215C15.056 22.2126 15.056 22.2024 15.0547 22.1909V22.1821C15.0534 22.1528 15.0611 22.1272 15.0803 22.1056C15.1058 22.0763 15.1134 22.0419 15.1134 22.0037V21.9311C15.1134 21.9171 15.1148 21.9018 15.1173 21.8878C15.1173 21.8802 15.1186 21.8726 15.1199 21.865C15.1199 21.865 15.1199 21.8636 15.1199 21.8623C15.1199 21.8585 15.1199 21.8547 15.1212 21.8509C15.1237 21.8356 15.1263 21.8203 15.1301 21.8038C15.1352 21.7847 15.1377 21.7643 15.1351 21.7452C15.1351 21.7388 15.1339 21.7325 15.1314 21.7274C15.1314 21.7274 15.1314 21.7248 15.1314 21.7236C15.1288 21.7146 15.1275 21.7057 15.1275 21.6968V21.679C15.1301 21.6548 15.1403 21.6318 15.1492 21.6077C15.1633 21.5746 15.1723 21.5427 15.1787 21.507V21.5033C15.1787 21.4995 15.1799 21.4943 15.1799 21.4905C15.1799 21.4867 15.1799 21.4816 15.1812 21.4778V21.4447C15.1812 21.3836 15.2029 21.3224 15.2182 21.2613C15.2233 21.2384 15.2361 21.218 15.2578 21.204C15.2833 21.1874 15.2936 21.162 15.3025 21.134C15.314 21.0958 15.3191 21.0576 15.3166 21.0207C15.3166 21.0156 15.3165 21.0117 15.3152 21.0066V21.0041L15.3127 20.9862C15.3127 20.9824 15.3114 20.9774 15.3101 20.9735L15.3076 20.9634C15.3076 20.9608 15.3063 20.9582 15.305 20.9556C15.3012 20.9417 15.2961 20.9277 15.2898 20.9137C15.2834 20.8997 15.2795 20.8869 15.2795 20.8742C15.2783 20.8551 15.2834 20.836 15.2961 20.8156C15.3242 20.7698 15.3459 20.7189 15.3778 20.6756C15.4056 20.6368 15.4286 20.5963 15.4484 20.5546H19.4988ZM7.66721 36.2026H8.83822V34.8375H9.68113L9.98118 34.0122H8.83822V33.2469H10.2583L10.5571 32.423H7.66721V36.2026ZM10.9147 36.2026H12.0858V32.423H10.9147V36.2026ZM12.8915 36.2026H14.0625V34.8375H14.9054L15.2055 34.0122H14.0625V33.2469H15.4826L15.7814 32.423H12.8915V36.2026ZM15.1762 36.2026H16.3292L16.4761 35.6944H17.7992L17.9523 36.2026H19.1349L17.7646 32.423H16.5463L15.1762 36.2026Z" fill="white"/>
<path d="M24.6924 39.7058H25.0768V39.8025H24.6924V39.9923H24.617V39.5148H24.6924V39.7058Z" fill="white"/>
<path d="M25.0768 38.9315H24.6924L25.0768 39.1072V39.2002L24.6924 39.376H25.0768V39.4702H24.6591C24.6464 39.4702 24.6362 39.4664 24.6286 39.4588C24.6209 39.4512 24.617 39.4409 24.617 39.4282V39.3225L24.981 39.1531L24.617 38.985V38.878C24.617 38.864 24.6209 38.8551 24.6286 38.8474C24.6362 38.8411 24.6464 38.8374 24.6591 38.8374H25.0768V38.9315Z" fill="white"/>
<path d="M19.4988 0C23.0885 2.94068e-05 25.9988 2.90223 25.9988 6.48185C25.9987 10.0614 23.0885 12.9635 19.4988 12.9636H26V19.4454H15.7324C15.7347 19.4387 15.7368 19.4318 15.7392 19.425C15.7954 19.285 15.8656 19.15 15.9103 19.0048C15.9435 18.8979 15.987 18.7934 16.0202 18.6865C16.0445 18.6101 16.0687 18.5349 16.1134 18.4661C16.144 18.419 16.1645 18.368 16.1786 18.312C16.2105 18.1783 16.227 18.0395 16.2832 17.9122C16.287 17.902 16.2884 17.8918 16.2909 17.8804C16.3305 17.7352 16.3446 17.5837 16.4135 17.4449C16.434 17.4028 16.4581 17.3556 16.4594 17.3047C16.4594 17.2449 16.4825 17.1901 16.5054 17.1379C16.5374 17.0654 16.5693 16.9953 16.5617 16.9189C16.5591 16.8897 16.5515 16.8603 16.5349 16.8298C16.5259 16.8132 16.522 16.8018 16.5233 16.7916C16.5245 16.7763 16.5386 16.7648 16.5642 16.7457C16.6127 16.7126 16.6382 16.668 16.6395 16.6094C16.6395 16.5878 16.6408 16.5661 16.6395 16.5445C16.6382 16.4159 16.6599 16.2911 16.7033 16.1702C16.7442 16.0556 16.7698 15.9396 16.766 15.8161V15.7576C16.766 15.7486 16.7659 15.741 16.7672 15.7321V15.7155C16.7672 15.7028 16.7698 15.69 16.7723 15.6786V15.6722C16.7723 15.6684 16.7737 15.6646 16.7749 15.6608C16.7762 15.6532 16.7775 15.6467 16.78 15.639C16.7877 15.6098 16.7979 15.5792 16.8132 15.5512C16.8234 15.5309 16.8324 15.5067 16.8337 15.4825V15.4647C16.8337 15.4583 16.8323 15.4519 16.8323 15.4468C16.831 15.4061 16.8438 15.3704 16.8527 15.3322C16.8553 15.3182 16.8591 15.3042 16.863 15.2902C16.8643 15.2838 16.8668 15.2774 16.8681 15.2723V15.2711C16.8719 15.2558 16.8771 15.2404 16.8809 15.2252C16.9103 15.1386 16.9256 15.0444 16.9831 14.968C16.9984 14.9476 17.0099 14.9221 17.0048 14.8954C17.0035 14.889 17.0021 14.8813 17.0021 14.875C16.9996 14.8292 17.0175 14.7871 17.0341 14.7464C17.0711 14.6573 17.112 14.5681 17.1516 14.479C17.1579 14.465 17.1656 14.4522 17.1784 14.4433C17.2192 14.414 17.241 14.3695 17.2499 14.3237C17.2525 14.3122 17.255 14.3019 17.2576 14.2905C17.2576 14.2867 17.2602 14.2829 17.2602 14.2778C17.2602 14.2727 17.2628 14.2688 17.264 14.2637C17.2666 14.251 17.2703 14.2383 17.2729 14.2256C17.2729 14.223 17.2729 14.2217 17.2741 14.2192C17.2805 14.1925 17.2883 14.167 17.296 14.1415C17.2998 14.1288 17.3036 14.116 17.3074 14.1046C17.3253 14.0473 17.3444 13.9912 17.3636 13.9339C17.3968 13.8397 17.43 13.7417 17.4427 13.6411C17.4453 13.6233 17.4518 13.608 17.4607 13.5927C17.5003 13.5188 17.5348 13.4424 17.5782 13.3699C17.6267 13.2896 17.6471 13.1979 17.6791 13.1126C17.748 12.9241 17.8169 12.7357 17.8514 12.537C17.8616 12.4785 17.8757 12.4199 17.8731 12.3613C17.8731 12.3537 17.8731 12.3459 17.8719 12.3383C17.868 12.3039 17.8654 12.2708 17.8629 12.2364C17.8578 12.1537 17.8565 12.0709 17.8514 11.9869C17.8514 11.9703 17.8488 11.9538 17.8475 11.9372V11.8952C17.8514 11.8557 17.8681 11.8225 17.8974 11.792C17.9357 11.7525 17.9689 11.7105 17.9918 11.6609C18.0557 11.5259 18.094 11.3807 18.1604 11.2483C18.1656 11.2394 18.1681 11.2279 18.1707 11.2177C18.2243 10.9821 18.283 10.7478 18.306 10.5059C18.3124 10.446 18.3175 10.3849 18.3252 10.3238C18.3265 10.3136 18.3278 10.3034 18.3291 10.2932C18.3291 10.2932 18.3291 10.2906 18.3291 10.2894C18.3354 10.2473 18.3431 10.2066 18.3546 10.1659C18.398 9.99905 18.449 9.83346 18.5282 9.67937C18.5499 9.63736 18.5691 9.59154 18.5679 9.54444L18.5646 9.53163C18.5632 9.52019 18.5598 9.50876 18.555 9.49731C18.541 9.46165 18.5347 9.42726 18.5308 9.3916C18.5244 9.32285 18.4873 9.26045 18.4912 9.18915V9.17261C18.4899 9.16624 18.4861 9.15979 18.4823 9.1547C18.4747 9.14197 18.4707 9.13053 18.4695 9.11652C18.4695 9.10507 18.4695 9.09231 18.4733 9.07959C18.4772 9.05922 18.4797 9.03752 18.4797 9.01716V8.99179C18.4797 8.98416 18.4784 8.97777 18.4758 8.97015C18.4758 8.97015 18.4758 8.97006 18.4758 8.96878C18.4746 8.96244 18.472 8.9561 18.4707 8.94976C18.4707 8.94849 18.4707 8.94719 18.4695 8.94466C18.4656 8.9332 18.4605 8.92301 18.4541 8.91282C18.4541 8.91282 18.4529 8.91024 18.4516 8.90897C18.4453 8.89751 18.4375 8.88729 18.4273 8.87837C18.3942 8.84529 18.3865 8.81094 18.3839 8.77404V8.73325C18.3826 8.69378 18.3814 8.65557 18.3788 8.6161V8.59446C18.3788 8.58939 18.3776 8.58301 18.3763 8.57792V8.56636C18.375 8.56127 18.3737 8.5549 18.3712 8.54982C18.371 8.54927 18.3672 8.53947 18.3647 8.53452C18.3533 8.51417 18.3494 8.4925 18.3481 8.46961V8.42757C18.3443 8.38432 18.315 8.35631 18.2754 8.33468C18.2448 8.31812 18.2128 8.31686 18.186 8.34487C18.1758 8.35505 18.1643 8.36519 18.1541 8.3741L18.1502 8.37795C18.1311 8.3945 18.1132 8.41111 18.0953 8.42894C18.0951 8.42914 18.0927 8.43143 18.0915 8.43143L18.0174 8.5053C18.0072 8.51548 17.997 8.52571 17.9881 8.53589C17.9396 8.58427 17.9075 8.58937 17.8858 8.55119C17.882 8.54483 17.8795 8.53843 17.877 8.52955C17.8744 8.52318 17.8718 8.51545 17.8692 8.50654C17.8667 8.49636 17.8642 8.48612 17.8616 8.47595C17.8591 8.46705 17.8578 8.45811 17.8553 8.44921C17.854 8.44285 17.8514 8.4352 17.8502 8.42757C17.8463 8.41103 17.8412 8.3945 17.8373 8.37795C17.8169 8.29518 17.7977 8.21241 17.7786 8.12836C17.7748 8.10926 17.771 8.09014 17.7659 8.07103C17.7378 7.94243 17.7084 7.81382 17.6535 7.69286C17.642 7.66739 17.6318 7.64185 17.6203 7.61638C17.6089 7.58839 17.5986 7.56042 17.5884 7.53243C17.5693 7.48151 17.5513 7.42928 17.5322 7.37835C17.4913 7.27266 17.4479 7.16943 17.3891 7.07392C17.3087 6.94404 17.2499 6.80016 17.1376 6.69065C17.1376 6.69065 17.135 6.68807 17.1337 6.68679C17.1312 6.68425 17.1287 6.68041 17.1261 6.6766C17.1261 6.67407 17.1247 6.67154 17.1247 6.66901C17.1247 6.66647 17.1261 6.66394 17.1286 6.66267C17.1426 6.64993 17.1478 6.63843 17.1478 6.62698C17.1478 6.60915 17.135 6.59388 17.1222 6.5786C17.1044 6.55696 17.0877 6.53533 17.0711 6.51368C17.0009 6.42328 16.9345 6.33028 16.8605 6.2437C16.8528 6.23479 16.8451 6.22588 16.8374 6.21696L16.8323 6.21186C16.8106 6.18768 16.7877 6.16858 16.7545 6.15839C16.7302 6.15075 16.7047 6.14303 16.6894 6.12394C16.6843 6.11758 16.6817 6.11122 16.6792 6.1023V6.09982C16.6792 6.09727 16.6791 6.09468 16.6778 6.09086V6.06288C16.674 6.05397 16.6638 6.04372 16.6587 6.03353C16.6268 5.97241 16.5834 5.91891 16.5412 5.86416C16.5348 5.85652 16.5284 5.84767 16.522 5.84003C16.5195 5.83748 16.5182 5.83487 16.5157 5.83232C16.3892 5.66551 16.2449 5.51401 16.0853 5.37903C15.6728 5.03011 15.208 4.77154 14.7023 4.58562C14.4111 4.47866 14.1085 4.41377 13.802 4.36538C13.5632 4.33227 13.3295 4.30171 13.0933 4.30171C12.9439 4.30171 12.7944 4.30551 12.645 4.31825C12.4381 4.3348 12.23 4.35257 12.0283 4.40095C11.8648 4.44042 11.7052 4.48759 11.5494 4.54234C11.3182 4.62257 11.096 4.71936 10.8827 4.83397C10.686 4.93966 10.497 5.0606 10.3183 5.19685C10.2659 5.23759 10.2136 5.27841 10.1625 5.3217C10.1625 5.3217 10.16 5.32293 10.1599 5.32419C10.1484 5.3331 10.1382 5.34338 10.1267 5.35229C10.1088 5.36757 10.0909 5.38279 10.0743 5.39806C10.0399 5.42988 10.0041 5.46174 9.97095 5.49357C9.97095 5.49357 9.96833 5.4949 9.96833 5.49618C9.94025 5.52291 9.9096 5.5497 9.8879 5.58024C9.86493 5.61206 9.84068 5.64387 9.81644 5.67314C9.81644 5.67314 9.81642 5.67435 9.81519 5.67438C9.77816 5.71895 9.73726 5.76229 9.69385 5.80048C9.67343 5.8183 9.65557 5.83745 9.63898 5.85781C9.63898 5.85781 9.63636 5.8604 9.63636 5.86167C9.61849 5.88331 9.60319 5.90877 9.5866 5.93168C9.56873 5.95333 9.54828 5.97375 9.51764 5.98267C9.51764 5.98267 9.51505 5.98391 9.51377 5.98391C9.50228 5.98901 9.49328 6.00295 9.48434 6.01314C9.47031 6.02712 9.45634 6.04243 9.44231 6.05642C9.31972 6.1863 9.21491 6.3315 9.12169 6.48558C8.72964 7.12994 8.46914 7.82276 8.32866 8.56263C8.30952 8.66065 8.29683 8.75868 8.293 8.85798C8.293 8.86689 8.29163 8.87714 8.29163 8.88733V8.89367C8.29163 8.91022 8.29678 8.92424 8.31083 8.9306C8.33509 8.94207 8.34404 8.95609 8.34787 8.97264V8.97774C8.34915 8.99301 8.3478 9.01081 8.34525 9.02736C8.33887 9.15978 8.33126 9.29226 8.33764 9.42468C8.3402 9.46923 8.34398 9.51382 8.35036 9.55837C8.35803 9.6144 8.36702 9.66923 8.37468 9.72526V9.7367C8.37596 9.75961 8.37213 9.77236 8.3581 9.77873C8.35172 9.78128 8.34276 9.78383 8.33128 9.78383H8.3223C8.3006 9.78383 8.28016 9.77746 8.25845 9.77364C8.21759 9.76472 8.17546 9.77366 8.14098 9.79403C8.10012 9.81823 8.06952 9.85772 8.06441 9.90483C8.0593 9.9443 8.05539 9.98376 8.05156 10.0232C8.05156 10.0296 8.05158 10.0347 8.05032 10.041V10.0653H8.04395C8.0414 10.0945 8.03887 10.1226 8.03759 10.1506C8.03759 10.1582 8.03749 10.1658 8.03622 10.1735C8.03622 10.1824 8.03625 10.1914 8.03498 10.2016C8.03497 10.2194 8.03376 10.2372 8.03248 10.255C8.03248 10.2805 8.03111 10.3059 8.03111 10.3314V10.4358C8.03111 10.4919 8.03113 10.5467 8.01964 10.6001V10.6052C8.01708 10.6179 8.01326 10.6319 8.00816 10.6446C8.00434 10.6548 8.00311 10.665 8.00056 10.6765C7.998 10.6905 7.99672 10.7033 7.99544 10.716V10.7326C7.99545 10.7669 8.00305 10.8013 8.026 10.8318C8.03365 10.842 8.04007 10.8522 8.04009 10.8636V10.8789C8.03243 10.9133 8.03625 10.9478 8.02986 10.9822C8.02731 10.9974 8.026 11.0114 8.026 11.0267V11.0458C8.02728 11.0853 8.03753 11.1235 8.05668 11.1591C8.09115 11.2228 8.10901 11.2916 8.12689 11.3603C8.13838 11.4062 8.14735 11.4533 8.16268 11.4979C8.19588 11.5934 8.22266 11.6914 8.27629 11.7793C8.3478 11.8977 8.35299 12.0429 8.42195 12.1626C8.42195 12.1638 8.42194 12.1664 8.42319 12.1689C8.45001 12.2351 8.48193 12.3001 8.48705 12.374V12.3766C8.48706 12.388 8.49217 12.3983 8.49727 12.4084C8.53174 12.4785 8.5522 12.5536 8.57646 12.6274C8.62626 12.7726 8.66581 12.919 8.722 13.0629C8.75647 13.1521 8.78971 13.2399 8.84334 13.3189C8.85483 13.3354 8.86252 13.3532 8.8689 13.3723C8.87018 13.3774 8.87149 13.3825 8.87277 13.3876V13.3978C8.87788 13.4284 8.87659 13.459 8.86766 13.487C8.84978 13.5443 8.85478 13.6003 8.85094 13.6576C8.85094 13.6653 8.85097 13.6716 8.8497 13.6793V13.7225C8.85225 13.7442 8.85866 13.7646 8.87015 13.785C8.88803 13.8193 8.90084 13.855 8.91105 13.8907C8.91105 13.8919 8.91103 13.8932 8.9123 13.8958C8.91358 13.9021 8.91614 13.9098 8.91741 13.9162C8.91743 13.92 8.92001 13.925 8.92128 13.9288V13.9339C8.93277 13.9836 8.94038 14.0345 8.95059 14.0842V14.0931C8.95059 14.1033 8.94934 14.1123 8.94423 14.1225C8.94042 14.1288 8.93916 14.1352 8.93662 14.1415C8.93662 14.1415 8.93525 14.1491 8.93525 14.1517V14.1619C8.93525 14.1772 8.94043 14.1937 8.94809 14.2103C8.95576 14.2268 8.96088 14.2435 8.96343 14.26C8.96345 14.2651 8.96593 14.2715 8.96593 14.2766V14.2841C8.96976 14.3122 8.96844 14.3414 8.96206 14.3695C8.95823 14.3885 8.95695 14.4064 8.95695 14.4242C8.95695 14.442 8.95954 14.4599 8.96593 14.4778C8.98124 14.521 8.99022 14.5643 8.9966 14.6088C8.9966 14.6088 8.9966 14.6102 8.9966 14.6115C9.00043 14.642 9.00428 14.6713 9.00683 14.7019C9.01066 14.7464 9.01323 14.791 9.01706 14.8356C9.01961 14.8738 9.02218 14.9133 9.0324 14.9502C9.03749 14.9667 9.03998 14.9833 9.04125 14.9986C9.04125 15.0151 9.04127 15.033 9.03489 15.0508C9.02979 15.0686 9.02728 15.0865 9.02728 15.1055C9.02728 15.1234 9.02979 15.1424 9.03489 15.1603C9.06043 15.2519 9.07063 15.3475 9.11021 15.4341C9.11915 15.4532 9.12559 15.4749 9.12942 15.4965C9.14602 15.6035 9.16771 15.7091 9.19452 15.8135C9.19452 15.8161 9.19576 15.8199 9.19576 15.8225C9.19576 15.8326 9.19581 15.8415 9.19327 15.8504C9.18817 15.8695 9.18688 15.8899 9.18816 15.909C9.18816 15.9294 9.19193 15.9498 9.19576 15.9702C9.19704 15.9804 9.19957 15.9906 9.20212 16.0008C9.20213 16.0059 9.20347 16.0097 9.20474 16.0147C9.23795 16.1624 9.29927 16.3026 9.32608 16.4516C9.34269 16.542 9.37844 16.6285 9.38994 16.7215C9.40143 16.8131 9.42563 16.9049 9.47287 16.9851C9.47797 16.994 9.48313 17.0029 9.48696 17.0118C9.48696 17.0118 9.48695 17.0144 9.48821 17.0144C9.48949 17.0183 9.49205 17.0221 9.49332 17.0259C9.49334 17.0284 9.49591 17.0322 9.49718 17.0347C9.49718 17.0373 9.49967 17.0399 9.49968 17.0437C9.49968 17.0462 9.50102 17.0501 9.5023 17.0526C9.5023 17.0552 9.50227 17.0564 9.50354 17.059C9.50354 17.0641 9.50613 17.0679 9.50741 17.073V17.0819C9.51379 17.1251 9.5112 17.1685 9.50354 17.2143C9.50354 17.2194 9.50105 17.2258 9.50105 17.2322V17.2334C9.4985 17.2525 9.49594 17.2703 9.49594 17.2894V17.3175C9.4985 17.3341 9.50478 17.3506 9.51626 17.3646C9.56479 17.4296 9.59553 17.5034 9.63511 17.5734C9.64404 17.5887 9.65036 17.6053 9.65419 17.6231C9.65419 17.6282 9.65553 17.632 9.65681 17.6371C9.65681 17.6511 9.65678 17.6651 9.65295 17.6791C9.64784 17.6957 9.64524 17.7097 9.64397 17.7224V17.7301C9.64399 17.7632 9.65941 17.781 9.70408 17.8065C9.80622 17.8625 9.84837 17.9606 9.88029 18.0599C9.90455 18.1351 9.93647 18.1988 9.98754 18.2561C10.0603 18.3375 10.1178 18.428 10.1701 18.5222C10.1982 18.5706 10.2212 18.624 10.2557 18.6661C10.3195 18.7425 10.3503 18.8303 10.3733 18.922C10.3733 18.922 10.3733 18.9246 10.3733 18.9258C10.3809 18.9564 10.3873 18.9869 10.395 19.0175C10.3962 19.0239 10.3975 19.0303 10.3975 19.0367C10.3975 19.0532 10.3949 19.0672 10.3834 19.0787C10.3796 19.0825 10.3757 19.085 10.3706 19.0875C10.3681 19.0888 10.3642 19.0901 10.3617 19.0926C10.3489 19.0977 10.3387 19.108 10.3324 19.1207C10.3311 19.1233 10.3285 19.127 10.3285 19.1295C10.3272 19.1334 10.3259 19.1372 10.3246 19.141C10.3221 19.1473 10.3195 19.155 10.3183 19.1614C10.3183 19.1614 10.3158 19.169 10.3158 19.1728C10.3081 19.2008 10.3042 19.2289 10.3029 19.2569V19.3219C10.3029 19.3257 10.3043 19.3295 10.3055 19.3346V19.3385C10.3094 19.3563 10.3145 19.3728 10.3209 19.3906C10.3283 19.4088 10.3348 19.4271 10.3408 19.4454H0.00124709V12.9636C0.00126078 9.38395 2.91163 6.48185 6.50131 6.48185H0.00124709C-2.993e-05 2.90221 2.91037 0 6.50006 0H19.4988Z" fill="white"/>
<path d="M117.843 12.623C122.105 12.623 125.269 15.5161 125.269 20.0098C125.268 24.5033 122.124 27.3965 117.843 27.3965C113.581 27.3963 110.418 24.5032 110.418 20.0098C110.418 15.5162 113.581 12.6232 117.843 12.623ZM177.919 12.6035C179.828 12.6035 181.564 13.2016 182.509 14.1465L181.352 17.3291C180.619 16.5384 179.597 16.0947 178.459 16.0947C176.338 16.0947 175.007 17.445 175.007 19.9521C175.007 22.4591 176.473 23.9443 178.787 23.9443C180.002 23.9443 181.12 23.5191 182.2 22.3428V26.085C181.296 26.8081 180.053 27.3275 178.392 27.3896L178.034 27.377C173.715 27.3767 170.687 24.3875 170.687 19.9521C170.687 15.5164 173.772 12.6035 177.919 12.6035ZM188.642 21.5908C188.642 23.0951 189.279 23.9053 190.475 23.9053C191.67 23.905 192.364 23.0371 192.364 21.5908V12.9512H196.685V21.3408C196.684 25.1977 194.254 27.3574 190.513 27.3574C186.733 27.3574 184.283 25.1977 184.283 21.3408V12.9512H188.642V21.5908ZM199.153 27.0879L199.134 27.0684H199.153V27.0879ZM54.7197 16.0557H49.3779V18.8721H53.6982L52.5605 21.9766H49.3779V27.0684H45V12.9707H55.8574L54.7197 16.0557ZM61.5469 27.0684H57.1699V12.9512H61.5469V27.0684ZM74.334 16.0557H68.9912V18.8721H73.3115L72.1738 21.9766H68.9912V27.0684H64.6143V12.9707H75.4717L74.334 16.0557ZM87.9883 27.0684H83.5527L83.0127 25.1592H78.0557L77.5166 27.0684H73.1377L78.2871 12.9512H82.8584L87.9883 27.0684ZM97.5156 20.3184L99.5215 12.9512H102.01L103.977 20.3184L105.828 12.9512H110.071L106.233 27.0684H102.704L100.717 19.7393L98.7109 27.0684H95.1631L91.3438 12.9512H95.7031L97.5156 20.3184ZM133.368 12.9512C137.36 12.9512 139.347 14.976 139.347 17.8496C139.347 19.8553 138.19 21.2051 136.203 21.9766L139.791 27.0684H135.22L132.462 22.6514H131.536V27.0684H127.274V12.9512H133.368ZM145.962 23.9824H151.478L150.34 27.0684H141.584V12.9512H145.962V23.9824ZM157.958 12.9512C163.088 12.9512 165.923 15.6123 165.923 19.9707C165.923 24.3293 162.914 27.0683 157.958 27.0684H152.731V12.9512H157.958ZM204.938 12.9707C208.969 12.9707 210.994 14.8795 210.994 17.9844C210.994 21.0894 208.603 22.9219 204.572 22.9219H203.453V27.0684H199.153V12.9707H204.938ZM229.874 12.9512C232.477 12.9512 234.58 15.0529 234.58 17.6562C234.58 20.2599 232.478 22.3623 229.874 22.3623H234.58V27.0684H215.757V22.3623C215.757 19.7588 217.859 17.6562 220.463 17.6562H215.757C215.757 15.0529 217.859 12.9512 220.463 12.9512H229.874ZM249.47 12.9512C252.073 12.9513 254.175 15.0529 254.175 17.6562H249.47C252.073 17.6564 254.175 19.7589 254.175 22.3623C254.175 24.9658 252.073 27.0682 249.47 27.0684H240.058C237.454 27.0682 235.353 24.9658 235.353 22.3623V17.6562C235.353 15.053 237.454 12.9513 240.058 12.9512H249.47ZM255.72 25.6221H257.648V26.1035H255.72V27.0684H255.334V24.6572H255.72V25.6221ZM257.648 21.2441V21.7451H255.72L257.648 22.6328V23.0957L255.72 23.9824H257.648V24.4453H255.546C255.488 24.4453 255.43 24.4262 255.392 24.3877C255.335 24.3499 255.334 24.2376 255.334 24.2334V23.6934L257.166 22.8447L255.334 21.9961V21.4561C255.334 21.3789 255.353 21.3403 255.392 21.3018C255.43 21.2442 255.545 21.2441 255.546 21.2441H257.648ZM117.843 15.9785C116.011 15.9787 114.738 17.3292 114.738 20.0098C114.738 22.6903 115.992 24.0399 117.843 24.04C119.675 24.04 120.948 22.7097 120.948 20.0098C120.948 17.3097 119.675 15.9785 117.843 15.9785ZM157.109 23.9629L157.861 23.9824C160.253 23.9824 161.642 22.4203 161.642 19.9902C161.642 17.5603 160.253 16.0371 157.861 16.0371H157.109V23.9629ZM78.8271 22.4395H82.2412L80.5244 16.5576L78.8271 22.4395ZM203.453 19.9326H204.649C206.154 19.9326 206.752 19.161 206.752 18.0039C206.752 16.8468 206.154 16.0557 204.649 16.0557H203.453V19.9326ZM131.517 19.8555H133.002C134.448 19.8554 135.123 19.0451 135.123 17.9072C135.123 16.7695 134.448 15.9981 133.002 15.998H131.517V19.8555Z" fill="white"/>
</svg>
