<svg width="1590" height="10" viewBox="0 0 1590 10" fill="none" xmlns="http://www.w3.org/2000/svg">
<g clip-path="url(#clip0_5721_16877)">
<rect y="-320" width="530" height="796" fill="#9EEC00"/>
<rect x="530" y="-320" width="1062" height="530" fill="#510E90"/>
<path d="M531 -320H796.5V-54.6667H531V-320Z" fill="#6A00F5"/>
<path d="M531 -54.6667H0C0 -201.206 118.868 -320 265.5 -320H531V-54.6667Z" fill="#6A00F5"/>
<path d="M796.5 -320C943.132 -320 1062 -201.206 1062 -54.6667H796.5V-320Z" fill="#6A00F5"/>
<path d="M531 210.667V476H0V210.667H531Z" fill="#6A00F5"/>
<path d="M796.5 476H531V-54.6667H796.5V476Z" fill="#6A00F5"/>
<path d="M796.5 210.667H1062V476H796.5V210.667Z" fill="#6A00F5"/>
<path d="M531 210.667H0C0 64.1271 118.868 -54.6667 265.5 -54.6667H531V210.667Z" fill="#6A00F5"/>
<path d="M796.5 -54.6667H1062C1062 91.8729 943.132 210.667 796.5 210.667V-54.6667Z" fill="#6A00F5"/>
<path d="M1326.5 -54C1473.13 -54 1592 64.6446 1592 211H1326.5C1473.13 211 1592 329.645 1592 476H530V211C530 64.6447 648.868 -54 795.5 -54H1326.5Z" fill="#FF1200"/>
<path d="M1062 -54C1062 92.3554 942.908 211 796 211H1062V476H530V211C530 64.6447 649.092 -54 796 -54H1062Z" fill="#63FFD9"/>
</g>
<defs>
<clipPath id="clip0_5721_16877">
<rect width="1590" height="10" fill="white"/>
</clipPath>
</defs>
</svg>
